<svg width="50" height="50" viewBox="0 0 50 50" fill="none" xmlns="http://www.w3.org/2000/svg">
<path d="M40.625 6.25H9.375C8.5462 6.25 7.75134 6.57924 7.16529 7.16529C6.57924 7.75134 6.25 8.5462 6.25 9.375V40.625C6.25 41.4538 6.57924 42.2487 7.16529 42.8347C7.75134 43.4208 8.5462 43.75 9.375 43.75H40.625C41.4538 43.75 42.2487 43.4208 42.8347 42.8347C43.4208 42.2487 43.75 41.4538 43.75 40.625V9.375C43.75 8.5462 43.4208 7.75134 42.8347 7.16529C42.2487 6.57924 41.4538 6.25 40.625 6.25Z" stroke="#2563EB" stroke-width="3" stroke-linecap="round" stroke-linejoin="round"/>
<path d="M18.7493 23.9584C20.1307 23.9584 21.4554 23.4096 22.4322 22.4329C23.4089 21.4561 23.9577 20.1314 23.9577 18.75C23.9577 17.3687 23.4089 16.0439 22.4322 15.0672C21.4554 14.0904 20.1307 13.5417 18.7493 13.5417C17.368 13.5417 16.0433 14.0904 15.0665 15.0672C14.0897 16.0439 13.541 17.3687 13.541 18.75C13.541 20.1314 14.0897 21.4561 15.0665 22.4329C16.0433 23.4096 17.368 23.9584 18.7493 23.9584ZM28.9473 27.3125C29.1447 27.0482 29.402 26.8346 29.6981 26.6892C29.9942 26.5438 30.3206 26.4708 30.6504 26.4762C30.9803 26.4816 31.3041 26.5652 31.5953 26.7202C31.8865 26.8752 32.1367 27.0971 32.3254 27.3677L41.466 40.475C42.4285 41.8563 41.44 43.75 39.7577 43.75H16.666L28.9473 27.3125Z" stroke="#2563EB" stroke-width="3" stroke-linecap="round" stroke-linejoin="round"/>
</svg>
