<svg width="50" height="50" viewBox="0 0 50 50" fill="none" xmlns="http://www.w3.org/2000/svg">
<path d="M9.98307 44.2708C9.73307 42.9635 11.6289 42.4583 12.0352 42.1906C17.0914 39.5864 21.9477 39.6666 21.6143 34.5771C20.2591 33.3875 19.8747 31.3323 18.9216 29.8291C18.7245 29.6618 18.5654 29.4543 18.4549 29.2205C18.3444 28.9867 18.2852 28.732 18.281 28.4734C18.2769 28.2149 18.328 27.9584 18.4309 27.7212C18.5338 27.484 18.6862 27.2715 18.8779 27.0979C18.9039 25.9354 18.9258 21.3062 19.1331 21.2677C19.6852 19.0052 22.0904 17.8302 24.5081 17.8302C26.9258 17.8302 29.332 19.0052 29.8841 21.2677C30.0914 21.3062 30.1133 25.9344 30.1393 27.0979C30.3309 27.2716 30.4832 27.4841 30.5861 27.7214C30.6889 27.9586 30.7399 28.2151 30.7357 28.4737C30.7314 28.7322 30.672 28.9869 30.5615 29.2206C30.4509 29.4544 30.2917 29.6619 30.0945 29.8291C29.1414 31.3323 28.7581 33.3885 27.4029 34.5771C27.0695 39.6666 31.9258 39.5864 36.981 42.1906C37.3872 42.4573 39.2841 42.9635 39.0341 44.2708M11.232 5.97082H7.19141V14.051M7.19141 10.0114H9.81849M14.2227 14.0135V5.93228H16.8477C17.5709 5.93228 18.2646 6.21959 18.776 6.73102C19.2874 7.24245 19.5747 7.93609 19.5747 8.65936C19.5747 9.38263 19.2874 10.0763 18.776 10.5877C18.2646 11.0991 17.5709 11.3864 16.8477 11.3864H14.2227M17.0393 11.3791L19.5758 14.0135M37.557 13C37.7963 13.3021 38.1047 13.5423 38.4562 13.7003C38.8077 13.8584 39.192 13.9297 39.5768 13.9083H40.7893C41.3242 13.9067 41.8367 13.6935 42.215 13.3152C42.5932 12.937 42.8064 12.4245 42.8081 11.8896C42.807 11.3544 42.594 10.8415 42.2156 10.4629C41.8373 10.0844 41.3245 9.87115 40.7893 9.86978H39.4758C38.9404 9.86813 38.4275 9.65465 38.049 9.276C37.6706 8.89735 37.4574 8.3843 37.456 7.84894C37.4571 7.3135 37.6702 6.80029 38.0487 6.42158C38.4272 6.04287 38.9403 5.82948 39.4758 5.82811H40.6883C41.0755 5.78415 41.4673 5.84542 41.8226 6.00546C42.1779 6.1655 42.4834 6.41838 42.707 6.73748M35.0383 11.1812C35.0398 11.5397 34.9703 11.8949 34.8339 12.2264C34.6974 12.5579 34.4967 12.8591 34.2433 13.1126C33.9899 13.3661 33.6887 13.5669 33.3573 13.7035C33.0259 13.8401 32.6707 13.9097 32.3122 13.9083C31.9556 13.9098 31.6022 13.8411 31.2721 13.706C30.9421 13.5709 30.6419 13.3721 30.3886 13.121C30.1354 12.8699 29.9341 12.5714 29.7962 12.2425C29.6584 11.9136 29.5867 11.5608 29.5852 11.2041V8.45623C29.5836 8.09768 29.6531 7.74238 29.7897 7.41083C29.9262 7.07928 30.127 6.77805 30.3805 6.52451C30.6341 6.27098 30.9353 6.07016 31.2668 5.93365C31.5984 5.79714 31.9537 5.72763 32.3122 5.72915C32.6655 5.72975 33.015 5.80147 33.3399 5.94003C33.6648 6.07859 33.9585 6.28115 34.2035 6.53564C34.4484 6.79013 34.6396 7.09134 34.7657 7.4213C34.8918 7.75127 34.9501 8.10324 34.9372 8.45623" stroke="#2563EB" stroke-width="3" stroke-linecap="round" stroke-linejoin="round"/>
</svg>
