<svg width="50" height="50" viewBox="0 0 50 50" fill="none" xmlns="http://www.w3.org/2000/svg">
<path fill-rule="evenodd" clip-rule="evenodd" d="M25 36.7356L33.4476 41.1094C33.781 41.2818 34.1504 41.373 34.5257 41.3754C34.901 41.3779 35.2715 41.2916 35.6071 41.1237L42.731 37.5618C43.1264 37.3642 43.459 37.0604 43.6915 36.6844C43.9241 36.3085 44.0474 35.8752 44.0476 35.4332V28.8522C44.0474 28.4102 43.9241 27.9769 43.6915 27.601C43.459 27.225 43.1264 26.9213 42.731 26.7237L34.5238 22.6189L26.2857 26.8856C25.8982 27.0863 25.5734 27.3897 25.3466 27.7626C25.1199 28.1354 25 28.5634 25 28.9998V36.7356Z" stroke="#2563EB" stroke-width="2" stroke-linecap="round" stroke-linejoin="round"/>
<path fill-rule="evenodd" clip-rule="evenodd" d="M7.23884 37.3999L14.4007 41.1094C14.7341 41.2818 15.1035 41.373 15.4788 41.3755C15.8541 41.378 16.2247 41.2917 16.5603 41.1237L25.0007 36.9047V28.8523C25.0005 28.4102 24.8772 27.977 24.6447 27.601C24.4121 27.2251 24.0795 26.9213 23.6841 26.7237L15.4769 22.619L7.23884 26.8856C6.85135 27.0864 6.52649 27.3897 6.29974 27.7626C6.07299 28.1355 5.95309 28.5635 5.95313 28.9999V35.2856C5.95309 35.722 6.07299 36.15 6.29974 36.5229C6.52649 36.8958 6.85135 37.1992 7.23884 37.3999ZM15.4769 22.4499L23.9246 26.8237C24.2579 26.9961 24.6273 27.0873 25.0026 27.0898C25.3779 27.0923 25.7485 27.006 26.0841 26.838L34.5246 22.619V14.5666C34.5243 14.1245 34.401 13.6913 34.1685 13.3153C33.9359 12.9394 33.6033 12.6356 33.2079 12.438L26.0841 8.8761C25.7485 8.70811 25.3779 8.62184 25.0026 8.62432C24.6273 8.6268 24.2579 8.71797 23.9246 8.89038L16.7626 12.5999C16.3752 12.8007 16.0503 13.104 15.8235 13.4769C15.5968 13.8498 15.4769 14.2778 15.4769 14.7142V22.4499Z" stroke="#2563EB" stroke-width="2" stroke-linecap="round" stroke-linejoin="round"/>
<path d="M16.3012 13.5069L23.9369 17.3236C24.2673 17.4887 24.6317 17.5747 25.0012 17.5747C25.3706 17.5747 25.735 17.4887 26.0654 17.3236L33.6202 13.5474M20.9512 11.0688L29.7631 15.476M30.475 25.3546L39.2869 29.7617M11.4273 25.3546L20.2392 29.7617M25.825 27.7927L33.4607 31.6093C33.7912 31.7745 34.1555 31.8604 34.525 31.8604C34.8944 31.8604 35.2588 31.7745 35.5892 31.6093L43.1416 27.8331M6.77734 27.7927L14.4131 31.6093C14.7435 31.7745 15.1079 31.8604 15.4773 31.8604C15.8468 31.8604 16.2112 31.7745 16.5416 31.6093L24.094 27.8331M25.0012 17.8569V27.3808M34.525 32.1427V40.476M15.4773 32.1427V40.476" stroke="#2563EB" stroke-width="2" stroke-linecap="round" stroke-linejoin="round"/>
</svg>
