<svg width="50" height="50" viewBox="0 0 50 50" fill="none" xmlns="http://www.w3.org/2000/svg">
<path d="M25.0013 25H25.0221M33.3346 12.5V8.33335C33.3346 7.22829 32.8956 6.16848 32.1142 5.38708C31.3328 4.60567 30.273 4.16669 29.168 4.16669H20.8346C19.7296 4.16669 18.6698 4.60567 17.8884 5.38708C17.107 6.16848 16.668 7.22829 16.668 8.33335V12.5M45.8346 27.0834C39.653 31.1646 32.4087 33.3402 25.0013 33.3402C17.5939 33.3402 10.3497 31.1646 4.16797 27.0834" stroke="#2563EB" stroke-width="3" stroke-linecap="round" stroke-linejoin="round"/>
<path d="M41.668 12.5H8.33464C6.03345 12.5 4.16797 14.3655 4.16797 16.6667V37.5C4.16797 39.8012 6.03345 41.6667 8.33464 41.6667H41.668C43.9692 41.6667 45.8346 39.8012 45.8346 37.5V16.6667C45.8346 14.3655 43.9692 12.5 41.668 12.5Z" stroke="#2563EB" stroke-width="3" stroke-linecap="round" stroke-linejoin="round"/>
</svg>
