<svg width="50" height="50" viewBox="0 0 50 50" fill="none" xmlns="http://www.w3.org/2000/svg">
<path d="M7.40634 29.7022C5.91051 22.7168 5.16051 19.2231 7.03759 16.9043C8.91259 14.5835 12.4855 14.5835 19.6293 14.5835H30.3709C37.5168 14.5835 41.0855 14.5835 42.9626 16.9043C44.8397 19.2252 44.0897 22.7168 42.5938 29.7022L41.7001 33.8689C40.6855 38.6043 40.1793 40.971 38.4605 42.3606C36.7418 43.7502 34.3209 43.7502 29.4793 43.7502H20.5209C15.6793 43.7502 13.2584 43.7502 11.5418 42.3606C9.82093 40.971 9.31259 38.6043 8.30009 33.8689L7.40634 29.7022Z" stroke="#2563EB" stroke-width="3"/>
<path d="M16.6667 25H33.3333M20.8333 31.25H29.1667M37.5 18.75L31.25 6.25M12.5 18.75L18.75 6.25" stroke="#2563EB" stroke-width="3" stroke-linecap="round" stroke-linejoin="round"/>
</svg>
