<svg width="50" height="50" viewBox="0 0 50 50" fill="none" xmlns="http://www.w3.org/2000/svg">
<path d="M29.166 44.2708H20.8327V47.3958H29.166V44.2708ZM5.72852 29.1666V20.8333H2.60352V29.1666H5.72852ZM44.2702 28.2562V29.1666H47.3952V28.2562H44.2702ZM31.0223 9.6062L39.2702 17.0291L41.3598 14.7041L33.1139 7.2812L31.0223 9.6062ZM47.3952 28.2562C47.3952 24.7375 47.4264 22.5083 46.541 20.5166L43.6848 21.7895C44.2389 23.0354 44.2702 24.4625 44.2702 28.2562H47.3952ZM39.2702 17.0291C42.0889 19.5666 43.1306 20.5458 43.6848 21.7895L46.541 20.5166C45.6535 18.5229 43.9764 17.0583 41.3598 14.7041L39.2702 17.0291ZM20.8952 5.72912C24.191 5.72912 25.4348 5.75412 26.541 6.17912L27.6618 3.26245C25.8869 2.57912 23.9535 2.60412 20.8952 2.60412V5.72912ZM33.1139 7.28329C30.8514 5.24787 29.4368 3.94162 27.6618 3.26245L26.5431 6.17912C27.6514 6.60412 28.5848 7.41245 31.0223 9.6062L33.1139 7.28329ZM20.8327 44.2708C16.8598 44.2708 14.0389 44.2666 11.8952 43.9791C9.80143 43.6979 8.5931 43.1687 7.71185 42.2875L5.50352 44.4958C7.06185 46.0583 9.03894 46.7479 11.4806 47.077C13.8764 47.4 16.9494 47.3958 20.8327 47.3958V44.2708ZM2.60352 29.1666C2.60352 33.05 2.59935 36.1208 2.92227 38.5187C3.25143 40.9604 3.9431 42.9375 5.50144 44.4979L7.70977 42.2895C6.8306 41.4062 6.30143 40.1979 6.02018 38.102C5.73269 35.9625 5.72852 33.1395 5.72852 29.1666H2.60352ZM29.166 47.3958C33.0493 47.3958 36.1202 47.4 38.5181 47.077C40.9598 46.7479 42.9369 46.0562 44.4973 44.4979L42.2889 42.2895C41.4056 43.1687 40.1973 43.6979 38.1014 43.9791C35.9618 44.2666 33.1389 44.2708 29.166 44.2708V47.3958ZM44.2702 29.1666C44.2702 33.1395 44.266 35.9625 43.9785 38.1041C43.6973 40.1979 43.1681 41.4062 42.2869 42.2875L44.4952 44.4958C46.0577 42.9375 46.7473 40.9604 47.0764 38.5187C47.3994 36.1229 47.3952 33.05 47.3952 29.1666H44.2702ZM5.72852 20.8333C5.72852 16.8604 5.73269 14.0395 6.02018 11.8958C6.30143 9.80204 6.8306 8.5937 7.71185 7.71245L5.50352 5.50412C3.94102 7.06245 3.25143 9.03954 2.92227 11.4812C2.59935 13.877 2.60352 16.95 2.60352 20.8333H5.72852ZM20.8952 2.60412C16.9889 2.60412 13.9035 2.59995 11.4973 2.92287C9.04519 3.25204 7.06185 3.9437 5.50144 5.50204L7.70977 7.71037C8.5931 6.8312 9.80352 6.30204 11.9119 6.02079C14.0639 5.73329 16.9014 5.72912 20.8952 5.72912V2.60412Z" fill="#2563EB"/>
<path d="M27.082 5.20825V10.4166C27.082 15.327 27.082 17.7833 28.607 19.3083C30.132 20.8333 32.5883 20.8333 37.4987 20.8333H45.832" stroke="#2563EB" stroke-width="3"/>
<path d="M12.5 34.375L15.2771 37.5L20.8333 31.25" stroke="#2563EB" stroke-width="3" stroke-linecap="round" stroke-linejoin="round"/>
</svg>
