<svg width="50" height="50" viewBox="0 0 50 50" fill="none" xmlns="http://www.w3.org/2000/svg">
<path d="M16.3392 37.7348H11.313C9.3735 37.7348 7.5134 36.9643 6.14194 35.5928C4.77048 34.2214 4 32.3613 4 30.4217V25.3955C4 24.3047 4.43334 23.2585 5.20469 22.4872C5.97604 21.7158 7.02222 21.2825 8.11307 21.2825C9.20393 21.2825 10.2501 21.7158 11.0215 22.4872C11.7928 23.2585 12.2261 24.3047 12.2261 25.3955V27.8634C12.2261 28.2997 12.3995 28.7182 12.708 29.0267C13.0166 29.3353 13.435 29.5086 13.8714 29.5086H35.2594C35.6957 29.5086 36.1142 29.3353 36.4227 29.0267C36.7312 28.7182 36.9046 28.2997 36.9046 27.8634V25.3955C36.9046 24.3047 37.3379 23.2585 38.1093 22.4872C38.8806 21.7158 39.9268 21.2825 41.0177 21.2825C42.1085 21.2825 43.1547 21.7158 43.926 22.4872C44.6974 23.2585 45.1307 24.3047 45.1307 25.3955V30.4217C45.1307 32.3613 44.3602 34.2214 42.9888 35.5928C41.6173 36.9643 39.7572 37.7348 37.8177 37.7348H16.3392Z" stroke="#2563EB" stroke-width="3" stroke-linecap="round"/>
<path d="M41.0179 21.2827C41.0179 19.3701 41.0179 18.4159 40.8595 17.622C40.5421 16.0262 39.7586 14.5603 38.6081 13.4097C37.4576 12.2592 35.9917 11.4757 34.3958 11.1584C33.602 11 32.6478 11 30.7352 11H18.396C16.4834 11 15.5291 11 14.7353 11.1584C13.1395 11.4757 11.6736 12.2592 10.523 13.4097C9.37249 14.5603 8.58899 16.0262 8.27163 17.622C8.11328 18.4159 8.11328 19.3701 8.11328 21.2827" stroke="#2563EB" stroke-width="3"/>
<path d="M24.6073 24.8392V28.0088H24.5225V24.8392H24.6073ZM24.5225 12.5H24.6073V13.6131H24.5225V12.5Z" stroke="#2563EB" stroke-width="3"/>
<path d="M41.0179 39.7916V37.7351M8.11328 39.7916V37.7351" stroke="#2563EB" stroke-width="3" stroke-linecap="round"/>
</svg>
