<svg width="50" height="50" viewBox="0 0 50 50" fill="none" xmlns="http://www.w3.org/2000/svg">
<path d="M45.8346 16.0417C45.8346 14.7917 45.0013 13.5417 44.168 12.9167L31.043 4.79169C30.5032 4.48486 29.893 4.32355 29.2721 4.32355C28.6513 4.32355 28.0411 4.48486 27.5013 4.79169L6.04297 17.2917C5.0013 17.7084 4.16797 18.9584 4.16797 20.2084V33.9584C4.16797 35 5.0013 36.4584 5.83464 37.0834L18.9596 45.2084C19.4994 45.5152 20.1096 45.6765 20.7305 45.6765C21.3513 45.6765 21.9616 45.5152 22.5013 45.2084L43.9596 32.7084C45.0013 32.0834 45.8346 30.625 45.8346 29.5834V16.0417Z" stroke="#2563EB" stroke-width="3" stroke-linecap="round" stroke-linejoin="round"/>
<path d="M20.8333 45.625V29.1667M20.8333 29.1667L4.375 18.9584M20.8333 29.1667L45.625 14.7917M29.1667 41.25V24.375M37.5 36.4584V19.5834" stroke="#2563EB" stroke-width="3" stroke-linecap="round" stroke-linejoin="round"/>
</svg>
