<svg width="50" height="50" viewBox="0 0 50 50" fill="none" xmlns="http://www.w3.org/2000/svg">
<path d="M16.0221 20.6563H33.9805M16.0221 20.6563H5.73047M16.0221 20.6563L23.6263 41.5959M16.0221 20.6563L21.0221 12.4626L22.168 10.3542M33.9805 20.6563H44.2721M33.9805 20.6563L26.3763 41.5959M33.9805 20.6563L28.9805 12.4626L27.8013 10.3542M5.73047 20.6563C5.73047 21.5313 5.89505 22.4063 6.22214 23.2313C6.6638 24.3459 7.55964 25.373 9.34714 27.4251L16.5701 35.7084C19.4805 39.0459 20.9346 40.7167 22.6596 41.3292C22.9777 41.4417 23.2999 41.5306 23.6263 41.5959M5.73047 20.6563C5.73047 19.7813 5.89505 18.9063 6.22214 18.0792C6.6638 16.9647 7.55964 15.9397 9.34714 13.8855C10.3201 12.773 10.8055 12.2167 11.368 11.7855C12.2043 11.1481 13.1734 10.7074 14.2034 10.4959C14.8992 10.3542 15.6367 10.3542 17.1138 10.3542H22.168M23.6263 41.5959C24.5342 41.7756 25.4684 41.7756 26.3763 41.5959M22.168 10.3542H27.8013M44.2721 20.6563C44.2721 21.5313 44.1076 22.4063 43.7805 23.2313C43.3388 24.3459 42.443 25.373 40.6555 27.4251L33.4326 35.7084C30.5221 39.0459 29.068 40.7167 27.343 41.3292C27.0275 41.4409 26.7044 41.53 26.3763 41.5959M44.2721 20.6563C44.2721 19.7813 44.1076 18.9063 43.7805 18.0792C43.3388 16.9647 42.443 15.9397 40.6555 13.8855C39.6826 12.773 39.1971 12.2167 38.6346 11.7855C37.7984 11.1481 36.8292 10.7074 35.7992 10.4959C35.1034 10.3542 34.3659 10.3542 32.8888 10.3542H27.8013" stroke="#2563EB" stroke-width="3" stroke-linecap="round" stroke-linejoin="round"/>
</svg>
