<svg width="50" height="50" viewBox="0 0 50 50" fill="none" xmlns="http://www.w3.org/2000/svg">
<path d="M6.25 20.8333C6.25 12.9771 6.25 9.04791 8.69167 6.60833C11.1333 4.16875 15.0604 4.16666 22.9167 4.16666H27.0833C34.9396 4.16666 38.8687 4.16666 41.3083 6.60833C43.7479 9.05 43.75 12.9771 43.75 20.8333V29.1667C43.75 37.0229 43.75 40.9521 41.3083 43.3917C38.8667 45.8312 34.9396 45.8333 27.0833 45.8333H22.9167C15.0604 45.8333 11.1312 45.8333 8.69167 43.3917C6.25208 40.95 6.25 37.0229 6.25 29.1667V20.8333Z" stroke="#696969" stroke-width="3"/>
<path d="M16.667 20.8334H33.3337M16.667 29.1667H27.0837" stroke="#696969" stroke-width="3" stroke-linecap="round"/>
</svg>
