<svg width="36" height="42" viewBox="0 0 36 42" fill="none" xmlns="http://www.w3.org/2000/svg">
<path d="M17.5625 18.2354L17.4417 18.7874C16.9175 21.2242 15.9516 23.5444 14.5917 25.6333M14.5917 25.6333C16.8423 24.6433 19.2236 23.9823 21.6625 23.6708L21.8604 23.6437M14.5917 25.6333C13.7222 26.0138 12.8695 26.443 12.0333 26.9208L8.47918 28.952C7.4896 29.5166 7.2771 31.0229 8.05835 31.9166C8.75001 32.7062 9.89168 32.6208 10.4854 31.7354L14.4646 25.8249L14.5917 25.6333ZM17.5604 18.2354L18.5333 13.7854C18.8708 12.2479 17.375 11.0437 16.2208 11.9229C15.6021 12.3937 15.3729 13.3083 15.6792 14.0833L16.1917 15.3687C16.5889 16.3673 17.0452 17.3229 17.5604 18.2354ZM17.5604 18.2354C18.6952 20.2565 20.147 22.0825 21.8604 23.6437M21.8604 23.6437L26.5583 23.0479C27.875 22.8812 28.8292 24.4458 28.2375 25.7979C27.8063 26.7854 26.7354 27.1499 25.9021 26.5937L24.1292 25.4104C23.3307 24.8779 22.5724 24.2874 21.8604 23.6437Z" stroke="#2563EB" stroke-width="2"/>
<path d="M9.23332 40.2708H26.7667C28.7005 40.2708 30.5552 39.5026 31.9226 38.1351C33.2901 36.7677 34.0583 34.913 34.0583 32.9791V21.4583C34.059 19.5247 33.2916 17.6699 31.925 16.302L19.4896 3.86454C18.8124 3.18747 18.0085 2.65039 17.1238 2.284C16.2391 1.9176 15.2909 1.72906 14.3333 1.72913H9.23332C7.29945 1.72913 5.44478 2.49735 4.07733 3.86481C2.70988 5.23226 1.94165 7.08692 1.94165 9.02079V32.9791C1.94165 34.913 2.70988 36.7677 4.07733 38.1351C5.44478 39.5026 7.29945 40.2708 9.23332 40.2708Z" stroke="#2563EB" stroke-width="3" stroke-linecap="round" stroke-linejoin="round"/>
</svg>
