<svg width="50" height="50" viewBox="0 0 50 50" fill="none" xmlns="http://www.w3.org/2000/svg">
<path d="M45.8332 25.0001C45.8332 13.4938 36.5061 4.16675 24.9998 4.16675C13.4936 4.16675 4.1665 13.4938 4.1665 25.0001C4.1665 36.5063 13.4936 45.8334 24.9998 45.8334" stroke="#2563EB" stroke-width="3" stroke-linecap="round" stroke-linejoin="round"/>
<path d="M41.4977 13C39.5497 13.1396 37.2248 12.7688 35.4957 15.0063C32.3707 19.048 29.2478 19.3876 27.1644 18.0397C24.0394 16.0188 26.6665 12.7417 22.9998 10.9626C20.6103 9.80216 20.1688 7.47917 21.5 5M4.5 23.5C6.08958 24.8792 7.979 25.5584 10.6019 25.5584C16.0186 25.5584 17.1019 26.5938 17.1019 30.7334C17.1019 34.873 17.1019 34.873 18.1853 37.9772C18.8894 39.998 19.1353 42.0147 17.7311 43.7501M41.4561 41.5188L45.8332 45.8334M43.9748 35.5126C43.9737 36.6206 43.7544 37.7176 43.3294 38.7408C42.9043 39.7641 42.2819 40.6936 41.4977 41.4764C40.7134 42.2591 39.7826 42.8797 38.7585 43.3027C37.7344 43.7257 36.637 43.9428 35.529 43.9417C34.421 43.9428 33.3236 43.7257 32.2995 43.3027C31.2754 42.8797 30.3446 42.2591 29.5603 41.4764C28.7761 40.6936 28.1537 39.7641 27.7286 38.7408C27.3036 37.7176 27.0843 36.6206 27.0832 35.5126C27.0843 34.4046 27.3036 33.3076 27.7286 32.2843C28.1537 31.2611 28.7761 30.3315 29.5603 29.5488C30.3446 28.7661 31.2754 28.1455 32.2995 27.7225C33.3236 27.2995 34.421 27.0823 35.529 27.0834C36.637 27.0823 37.7344 27.2995 38.7585 27.7225C39.7826 28.1455 40.7134 28.7661 41.4977 29.5488C42.2819 30.3315 42.9043 31.2611 43.3294 32.2843C43.7544 33.3076 43.9737 34.4046 43.9748 35.5126Z" stroke="#2563EB" stroke-width="3" stroke-linecap="round" stroke-linejoin="round"/>
</svg>
