<svg width="917" height="446" viewBox="0 0 917 446" fill="none" xmlns="http://www.w3.org/2000/svg">
<path d="M17.8259 63.2186C16.7195 38.1452 38.1449 17.1399 63.1768 18.9574C132.206 23.9693 272.596 31.9606 466 31.9606C660.865 31.9606 801.911 23.8481 870.375 18.8444C894.897 17.0521 915.796 37.1827 914.77 61.7488C913.064 102.649 911 165.535 911 230.5C911 296.205 913.111 359.781 914.829 400.639C915.841 424.714 895.824 444.626 871.759 443.387C803.375 439.864 660.703 434.028 466 434.028C272.709 434.028 130.696 439.78 61.7395 443.31C37.1679 444.568 16.6613 423.808 17.7616 399.228C19.3367 364.041 21 308.433 21 230.5C21 153.626 19.3816 98.4754 17.8259 63.2186Z" fill="#2563EB"/>
<path d="M2.82588 48.2186C1.7195 23.1452 23.1449 2.13993 48.1768 3.95738C117.206 8.96926 257.596 16.9606 451 16.9606C645.865 16.9606 786.911 8.84812 855.375 3.84436C879.897 2.05213 900.796 22.1827 899.77 46.7488C898.064 87.6493 896 150.535 896 215.5C896 281.205 898.111 344.781 899.829 385.639C900.841 409.714 880.824 429.626 856.759 428.387C788.375 424.864 645.703 419.028 451 419.028C257.709 419.028 115.696 424.78 46.7395 428.31C22.1679 429.568 1.66132 408.808 2.76157 384.228C4.33668 349.041 6 293.433 6 215.5C6 138.626 4.38161 83.4754 2.82588 48.2186Z" fill="url(#paint0_radial_699_3121)"/>
<defs>
<radialGradient id="paint0_radial_699_3121" cx="0" cy="0" r="1" gradientUnits="userSpaceOnUse" gradientTransform="translate(451 554.777) scale(498.316 632.052)">
<stop stop-color="#2563EB"/>
<stop offset="0.674" stop-color="#00287F"/>
<stop offset="1" stop-color="#09004B"/>
</radialGradient>
</defs>
</svg>
