<svg width="50" height="50" viewBox="0 0 50 50" fill="none" xmlns="http://www.w3.org/2000/svg">
<path d="M1.95703 11.0179L9.79275 15.2322L16.7927 14.025C17.9582 13.8234 19.1539 13.8838 20.293 14.2019C21.4322 14.5201 22.4862 15.088 23.3785 15.8643M40.2927 33.15L29.2142 41.0215C28.0248 41.8664 26.6051 42.3269 25.1461 42.341C23.6872 42.355 22.2589 41.922 21.0535 41.1L1.95703 28.0822" stroke="#2563EB" stroke-width="3" stroke-linecap="round" stroke-linejoin="round"/>
<path d="M47.8639 28L40.0246 33.3572L27.8603 23.5357L23.3853 26.7893C22.5094 27.4252 21.421 27.6964 20.3491 27.5459C19.2773 27.3953 18.3057 26.8348 17.6389 25.9822C16.9756 25.13 16.6681 24.0542 16.7806 22.9803C16.8931 21.9063 17.417 20.9176 18.2424 20.2215L22.9032 16.3036C24.0079 15.3737 25.2892 14.6766 26.6701 14.2544C28.051 13.8321 29.503 13.6934 30.9389 13.8465L38.1996 14.625L47.8639 9.40002" stroke="#2563EB" stroke-width="3" stroke-linecap="round" stroke-linejoin="round"/>
<path d="M27.8613 23.5607C30.7899 26.1679 34.9399 24.8357 36.4828 22.7072" stroke="#2563EB" stroke-width="3" stroke-linecap="round" stroke-linejoin="round"/>
</svg>
