<svg width="50" height="50" viewBox="0 0 50 50" fill="none" xmlns="http://www.w3.org/2000/svg">
<path d="M7.8125 32.8125H23.4375V40.625M15.625 37.5V42.1875M42.1875 26.5625H25C24.5856 26.5625 24.1882 26.7272 23.8951 27.0202C23.6021 27.3132 23.4375 27.7106 23.4375 28.125V39.0625M32.8125 34.375V40.625M24.4687 8.00629L8.84375 13.6875C8.54176 13.7967 8.28075 13.9963 8.09623 14.2591C7.91171 14.5219 7.81264 14.8352 7.8125 15.1563V40.625C7.8125 41.0394 7.97712 41.4369 8.27015 41.7299C8.56317 42.0229 8.9606 42.1875 9.375 42.1875H40.625C41.0394 42.1875 41.4368 42.0229 41.7299 41.7299C42.0229 41.4369 42.1875 41.0394 42.1875 40.625V15.1563C42.1874 14.8352 42.0883 14.5219 41.9038 14.2591C41.7192 13.9963 41.4582 13.7967 41.1563 13.6875L25.5313 8.00629C25.188 7.88218 24.812 7.88218 24.4687 8.00629Z" stroke="#2563EB" stroke-width="3"/>
</svg>
