<svg width="60" height="60" viewBox="0 0 60 60" fill="none" xmlns="http://www.w3.org/2000/svg">
<path d="M45 15H45.0225M46.7975 26.7875C46.3125 27.2475 45.6696 27.5039 45.0012 27.5039C44.3328 27.5039 43.6899 27.2475 43.205 26.7875C38.7925 22.58 32.88 17.8775 35.7625 11.0525C37.3225 7.3625 41.0625 5 45 5C48.9375 5 52.68 7.3625 54.2375 11.05C57.1175 17.87 51.2225 22.5925 46.7975 26.7875Z" stroke="#2563EB" stroke-width="3" stroke-linecap="round" stroke-linejoin="round"/>
<path d="M12.5 55C16.6421 55 20 51.6421 20 47.5C20 43.3579 16.6421 40 12.5 40C8.35786 40 5 43.3579 5 47.5C5 51.6421 8.35786 55 12.5 55Z" stroke="#2563EB" stroke-width="3" stroke-linecap="round" stroke-linejoin="round"/>
<path d="M27.5 17.5H23.75C18.9175 17.5 15 20.8575 15 25C15 29.1425 18.9175 32.5 23.75 32.5H31.25C36.0825 32.5 40 35.8575 40 40C40 44.1425 36.0825 47.5 31.25 47.5H27.5" stroke="#2563EB" stroke-width="3" stroke-linecap="round" stroke-linejoin="round"/>
</svg>
