<svg width="50" height="50" viewBox="0 0 50 50" fill="none" xmlns="http://www.w3.org/2000/svg">
<path d="M9.37435 12.5V21.3854C9.37435 28 9.37435 31.3083 11.4098 33.3625C13.4431 35.4166 16.716 35.4166 23.2639 35.4166H26.7368C33.2827 35.4166 36.5556 35.4166 38.591 33.3625C40.6244 31.3062 40.6244 28 40.6244 21.3854V12.5M9.37435 12.5H40.6244M9.37435 12.5L10.8764 9.29579C12.0431 6.80829 12.6264 5.56663 13.8056 4.86663C14.9868 4.16663 16.4993 4.16663 19.5306 4.16663H30.4681C33.4973 4.16663 35.0118 4.16663 36.1931 4.86663C37.3743 5.56663 37.9577 6.80829 39.1223 9.29579L40.6244 12.5M21.8744 18.75H28.1244M24.9994 40.625V45.8333M24.9994 40.625H14.5827M24.9994 40.625H35.416M14.5827 40.625H9.37435C7.99301 40.625 6.66825 41.1737 5.6915 42.1504C4.71475 43.1272 4.16602 44.452 4.16602 45.8333M14.5827 40.625V45.8333M35.416 40.625H40.6244C42.0057 40.625 43.3304 41.1737 44.3072 42.1504C45.284 43.1272 45.8327 44.452 45.8327 45.8333M35.416 40.625V45.8333" stroke="#2563EB" stroke-width="3" stroke-linecap="round" stroke-linejoin="round"/>
</svg>
