<svg width="50" height="50" viewBox="0 0 50 50" fill="none" xmlns="http://www.w3.org/2000/svg">
<path d="M13.5415 18.75H11.4582M21.8749 18.75H19.7915M13.5415 12.5H11.4582M21.8749 12.5H19.7915M38.5415 31.25H36.4582M38.5415 22.9167H36.4582M29.1665 16.6667V45.8334H37.4999C41.429 45.8334 43.3915 45.8334 44.6124 44.6125C45.8332 43.3917 45.8332 41.4292 45.8332 37.5V25C45.8332 21.0709 45.8332 19.1084 44.6124 17.8875C43.3915 16.6667 41.429 16.6667 37.4999 16.6667H29.1665ZM29.1665 16.6667C29.1665 10.775 29.1665 7.8271 27.3353 5.99794C25.5061 4.16669 22.5582 4.16669 16.6665 4.16669C10.7749 4.16669 7.82696 4.16669 5.9978 5.99794C4.16655 7.8271 4.16655 10.775 4.16655 16.6667V22.9167M12.7311 27.6146C13.1165 27.2604 13.3082 27.0834 13.5415 27.0834C13.7749 27.0834 13.9665 27.2604 14.352 27.6146L15.8374 28.9834C16.0165 29.1479 16.1061 29.2313 16.2165 29.2709C16.329 29.3125 16.4499 29.3084 16.6957 29.2979L18.6999 29.2188C19.2165 29.1979 19.4749 29.1896 19.652 29.3375C19.829 29.4854 19.8645 29.7417 19.9332 30.2542L20.2082 32.3084C20.2415 32.5459 20.2561 32.6625 20.3145 32.7667C20.3728 32.8667 20.4665 32.9396 20.654 33.0875L22.2707 34.3584C22.6707 34.675 22.8707 34.8313 22.9103 35.0563C22.9499 35.2813 22.8145 35.4979 22.5457 35.9313L21.452 37.6959C21.327 37.8979 21.2645 38 21.2436 38.1125C21.2228 38.225 21.2478 38.3438 21.2978 38.5771L21.7311 40.6146C21.8395 41.1146 21.8915 41.3646 21.777 41.5646C21.6624 41.7646 21.4186 41.8438 20.9332 42.0021L19.004 42.6292C18.7749 42.7042 18.6603 42.7417 18.5686 42.8167C18.479 42.8938 18.4228 43.0021 18.3124 43.2167L17.3707 45.0313C17.1311 45.4959 17.0103 45.7271 16.7915 45.8063C16.5728 45.8854 16.3332 45.7854 15.8499 45.5854L13.9999 44.8188C13.7728 44.725 13.6603 44.6771 13.5415 44.6771C13.4228 44.6771 13.3103 44.725 13.0832 44.8188L11.2332 45.5854C10.7499 45.7854 10.5103 45.8854 10.2915 45.8063C10.0728 45.7271 9.95196 45.4938 9.71238 45.0313L8.77071 43.2167C8.65821 43.0021 8.60404 42.8938 8.51446 42.8188C8.42488 42.7438 8.30821 42.7042 8.07905 42.6313L6.14988 42.0021C5.66446 41.8438 5.42071 41.7646 5.30613 41.5646C5.19155 41.3646 5.24363 41.1167 5.35196 40.6146L5.7853 38.5771C5.8353 38.3438 5.8603 38.2271 5.83946 38.1146C5.79674 37.9639 5.72607 37.8225 5.63113 37.6979L4.5353 35.9313C4.26863 35.4979 4.13321 35.2813 4.1728 35.0563C4.21238 34.8313 4.41238 34.675 4.81238 34.3604L6.42905 33.0896C6.61655 32.9396 6.7103 32.8667 6.76863 32.7646C6.82696 32.6625 6.84155 32.5459 6.8728 32.3063L7.14988 30.2542C7.21863 29.7438 7.25405 29.4854 7.43113 29.3375C7.60821 29.1896 7.86655 29.1979 8.38321 29.2188L10.3895 29.2979C10.6332 29.3084 10.754 29.3125 10.8665 29.2709C10.977 29.2292 11.0665 29.1479 11.2457 28.9834L12.7311 27.6146Z" stroke="#2563EB" stroke-width="3" stroke-linecap="round" stroke-linejoin="round"/>
</svg>
