<svg width="50" height="50" viewBox="0 0 50 50" fill="none" xmlns="http://www.w3.org/2000/svg">
<path d="M4.16699 22.9167L10.0149 16.3397C10.7967 15.4598 11.7561 14.7556 12.8297 14.2734C13.9034 13.7911 15.0671 13.5418 16.2441 13.5417H16.667M4.16699 40.6251H15.6253L23.9587 34.3751C23.9587 34.3751 25.6462 33.2355 28.1253 31.2501C33.3337 27.0834 28.1253 20.4876 22.917 23.9584C18.6753 26.7855 14.5837 29.1667 14.5837 29.1667" stroke="#2563EB" stroke-width="3" stroke-linecap="round" stroke-linejoin="round"/>
<path d="M16.667 28.1251V14.5834C16.667 13.4783 17.106 12.4185 17.8874 11.6371C18.6688 10.8557 19.7286 10.4167 20.8337 10.4167H41.667C42.7721 10.4167 43.8319 10.8557 44.6133 11.6371C45.3947 12.4185 45.8337 13.4783 45.8337 14.5834V27.0834C45.8337 28.1885 45.3947 29.2483 44.6133 30.0297C43.8319 30.8111 42.7721 31.2501 41.667 31.2501H28.1253" stroke="#2563EB" stroke-width="3"/>
<path d="M40.625 20.8542L40.6458 20.8313M21.875 20.8542L21.8958 20.8313M31.25 25.0001C30.1449 25.0001 29.0851 24.5611 28.3037 23.7797C27.5223 22.9983 27.0833 21.9385 27.0833 20.8334C27.0833 19.7283 27.5223 18.6685 28.3037 17.8871C29.0851 17.1057 30.1449 16.6667 31.25 16.6667C32.3551 16.6667 33.4149 17.1057 34.1963 17.8871C34.9777 18.6685 35.4167 19.7283 35.4167 20.8334C35.4167 21.9385 34.9777 22.9983 34.1963 23.7797C33.4149 24.5611 32.3551 25.0001 31.25 25.0001Z" stroke="#2563EB" stroke-width="3" stroke-linecap="round" stroke-linejoin="round"/>
</svg>
