<svg width="50" height="50" viewBox="0 0 50 50" fill="none" xmlns="http://www.w3.org/2000/svg">
<path d="M38.4632 18.5547C37.8759 19.1382 37.0816 19.4657 36.2537 19.4657C35.4258 19.4657 34.6315 19.1382 34.0443 18.5547L31.4495 15.96C30.8655 15.3727 30.5376 14.5782 30.5376 13.75C30.5376 12.9218 30.8655 12.1272 31.4495 11.54L37.3226 5.66406C37.3342 5.65288 37.3429 5.639 37.3478 5.62365C37.3528 5.60831 37.3538 5.59198 37.3509 5.57612C37.348 5.56026 37.3412 5.54536 37.3312 5.53276C37.3211 5.52016 37.3081 5.51025 37.2933 5.50391C33.5023 3.87891 28.5872 4.70703 25.4661 7.80566C22.4798 10.7695 22.3099 15.2275 23.4036 19.1182C23.559 19.6712 23.5586 20.2564 23.4025 20.8092C23.2464 21.362 22.9406 21.861 22.5189 22.251L6.24933 37.1094C5.76932 37.535 5.38142 38.0542 5.1095 38.6353C4.83758 39.2163 4.68738 39.8468 4.66813 40.4881C4.64888 41.1293 4.761 41.7677 4.99757 42.364C5.23415 42.9603 5.59019 43.5019 6.04382 43.9555C6.49744 44.4091 7.03905 44.7652 7.63535 45.0018C8.23165 45.2383 8.87004 45.3504 9.51127 45.3312C10.1525 45.3119 10.783 45.1617 11.364 44.8898C11.9451 44.6179 12.4644 44.23 12.89 43.75L27.9153 27.4414C28.3004 27.0268 28.7911 26.7247 29.3347 26.5677C29.8783 26.4106 30.4544 26.4044 31.0013 26.5498C34.8626 27.584 39.2571 27.3896 42.2044 24.4805C45.3773 21.3555 46.0618 15.832 44.5237 12.6709C44.5168 12.6571 44.5067 12.6451 44.4943 12.636C44.4818 12.6268 44.4674 12.6207 44.4521 12.6183C44.4369 12.6158 44.4212 12.617 44.4065 12.6217C44.3918 12.6264 44.3784 12.6346 44.3675 12.6455L38.4632 18.5547Z" stroke="#2563EB" stroke-width="3" stroke-miterlimit="10" stroke-linecap="round"/>
<path d="M9.375 42.1875C10.2379 42.1875 10.9375 41.4879 10.9375 40.625C10.9375 39.7621 10.2379 39.0625 9.375 39.0625C8.51206 39.0625 7.8125 39.7621 7.8125 40.625C7.8125 41.4879 8.51206 42.1875 9.375 42.1875Z" fill="#2563EB"/>
</svg>
