<svg width="50" height="50" viewBox="0 0 50 50" fill="none" xmlns="http://www.w3.org/2000/svg">
<path d="M4.16663 29.1667C4.16663 21.31 4.16663 17.3816 6.6074 14.9408C9.04819 12.5 12.9765 12.5 20.8333 12.5H29.1666C37.0233 12.5 40.9518 12.5 43.3925 14.9408C45.8333 17.3816 45.8333 21.31 45.8333 29.1667C45.8333 37.0233 45.8333 40.9519 43.3925 43.3925C40.9518 45.8333 37.0233 45.8333 29.1666 45.8333H20.8333C12.9765 45.8333 9.04819 45.8333 6.6074 43.3925C4.16663 40.9519 4.16663 37.0233 4.16663 29.1667Z" stroke="#2563EB" stroke-width="3"/>
<path d="M33.3333 12.5001C33.3333 8.57171 33.3333 6.60752 32.1129 5.38714C30.8925 4.16675 28.9283 4.16675 25 4.16675C21.0716 4.16675 19.1074 4.16675 17.887 5.38714C16.6666 6.60752 16.6666 8.57171 16.6666 12.5001" stroke="#2563EB" stroke-width="3"/>
<path d="M25 36.111C27.3013 36.111 29.1667 34.5564 29.1667 32.6389C29.1667 30.7212 27.3013 29.1666 25 29.1666C22.6988 29.1666 20.8334 27.612 20.8334 25.6943C20.8334 23.7768 22.6988 22.2222 25 22.2222M25 36.111C22.6988 36.111 20.8334 34.5564 20.8334 32.6389M25 36.111V37.4999M25 22.2222V20.8333M25 22.2222C27.3013 22.2222 29.1667 23.7768 29.1667 25.6943" stroke="#2563EB" stroke-width="3" stroke-linecap="round"/>
</svg>
