<svg width="50" height="50" viewBox="0 0 50 50" fill="none" xmlns="http://www.w3.org/2000/svg">
<path d="M9.8784 14.5358L9.87107 14.5318L9.86369 14.5279C9.52288 14.3494 9.27185 13.9703 9.27185 13.4609C9.27185 13.0057 9.51779 12.5928 9.89277 12.3782L21.6236 6.05522C21.6245 6.05475 21.6254 6.05428 21.6263 6.05382C22.4338 5.62422 23.3814 5.62431 24.1889 6.05409C24.1896 6.05447 24.1903 6.05484 24.191 6.05522L35.943 12.3784C36.3178 12.5931 36.5636 13.0058 36.5636 13.4609C36.5636 13.9524 36.3056 14.3487 35.9585 14.535L35.957 14.5358L24.1862 20.869L24.1792 20.8727L24.1723 20.8766C23.8056 21.0788 23.3494 21.1901 22.9177 21.1901C22.4984 21.1901 22.0541 21.0844 21.6467 20.8676C21.646 20.8672 21.6452 20.8668 21.6445 20.8664L9.8784 14.5358Z" stroke="#2563EB" stroke-width="3"/>
<path d="M7.37864 20.2739L7.38563 20.2774L7.39266 20.2809L18.3219 25.7352C19.406 26.2946 20.087 27.3874 20.1041 28.615V38.9388C20.1041 39.3424 19.9067 39.7133 19.5593 39.9447C19.3287 40.0703 19.0952 40.1263 18.9166 40.1263C18.7472 40.1263 18.5591 40.083 18.3791 39.993L18.3781 39.9925L7.44856 34.5382C7.44736 34.5376 7.44617 34.537 7.44497 34.5364C6.33876 33.9745 5.66663 32.8835 5.66663 31.668V21.3347C5.66663 20.9278 5.86723 20.5543 6.21972 20.3232C6.61644 20.097 7.02152 20.0909 7.37864 20.2739Z" stroke="#2563EB" stroke-width="3"/>
<path d="M41.6679 21.3347V26.4597C40.6679 26.168 39.6054 26.043 38.5429 26.043C35.7096 26.043 32.9387 27.0222 30.7512 28.7722C27.7512 31.1263 26.0429 34.6888 26.0429 38.543C26.0429 39.5638 26.1679 40.5847 26.4387 41.5638C26.1262 41.5222 25.8137 41.3972 25.5221 41.2097C24.7304 40.7305 24.2512 39.8763 24.2512 38.9388V28.6055C24.2512 26.8138 25.2512 25.2097 26.8346 24.3972L37.7721 18.9388C38.6262 18.5013 39.5846 18.5638 40.3971 19.043C41.1887 19.543 41.6679 20.3971 41.6679 21.3347Z" fill="#2563EB"/>
<path d="M45.1464 32.6453C45.2118 32.7107 45.2773 32.7867 45.3333 32.8629M45.1464 32.6453L45.3333 32.8629M45.1464 32.6453C45.1145 32.6134 45.0917 32.5831 45.08 32.567C45.0696 32.5526 45.0601 32.5385 45.055 32.5309C43.4611 30.7667 41.1211 29.6667 38.5416 29.6667C36.0561 29.6667 33.7879 30.6922 32.1702 32.3493C30.6135 33.9456 29.6666 36.1336 29.6666 38.5417C29.6666 40.1963 30.1394 41.7742 30.949 43.1169L30.9506 43.1195L30.9506 43.1195C31.3748 43.833 31.9119 44.4885 32.5225 45.0297C32.5951 45.0756 32.6407 45.1212 32.6651 45.1456L32.666 45.1465C32.666 45.1465 32.666 45.1465 32.666 45.1465C32.7165 45.197 32.7659 45.2405 32.8267 45.2917H32.8737L32.9372 45.3552L33.0507 45.4506C34.5232 46.6874 36.4302 47.4167 38.5416 47.4167C41.7744 47.4167 44.5939 45.6829 46.1328 43.1194C46.5881 42.3469 46.9434 41.497 47.1601 40.6105L47.1624 40.6013L47.1624 40.6013C47.3375 39.9401 47.4166 39.2545 47.4166 38.5417C47.4166 36.4511 46.6872 34.522 45.4484 33.0275L45.3333 32.8887V32.8629M45.1464 32.6453L45.3333 32.8629M40.6041 42.0834V40.5626H42.0416C43.1971 40.5626 44.1041 39.626 44.1041 38.5001C44.1041 37.3698 43.1719 36.4376 42.0416 36.4376H40.6041V35.0834C40.6041 33.9531 39.6719 33.0209 38.5416 33.0209C37.4113 33.0209 36.4791 33.9531 36.4791 35.0834V36.4376H35.0416C33.9113 36.4376 32.9791 37.3698 32.9791 38.5001C32.9791 39.6304 33.9113 40.5626 35.0416 40.5626H36.4791V42.0834C36.4791 43.2137 37.4113 44.1459 38.5416 44.1459C39.6719 44.1459 40.6041 43.2137 40.6041 42.0834Z" fill="#2563EB" stroke="#2563EB"/>
</svg>
