<svg width="50" height="50" viewBox="0 0 50 50" fill="none" xmlns="http://www.w3.org/2000/svg">
<g clip-path="url(#clip0_18_241)">
<path d="M48.4375 50H1.5625C1.1481 50 0.75067 49.8354 0.457644 49.5424C0.164619 49.2493 0 48.8519 0 48.4375V1.5625C0 1.1481 0.164619 0.750671 0.457644 0.457646C0.75067 0.16462 1.1481 0 1.5625 0L14.0625 0C14.4769 0 14.8743 0.16462 15.1674 0.457646C15.4604 0.750671 15.625 1.1481 15.625 1.5625V27.1594L32.1125 18.9156C32.351 18.7963 32.616 18.7399 32.8824 18.752C33.1488 18.764 33.4076 18.844 33.6344 18.9844C33.8607 19.1244 34.0475 19.3198 34.1772 19.5523C34.3068 19.7847 34.3749 20.0464 34.375 20.3125V26.9281L47.6344 18.9719C47.8703 18.8319 48.1388 18.7564 48.4131 18.7531C48.6874 18.7499 48.9577 18.8188 49.1969 18.9531C49.4394 19.088 49.6416 19.285 49.7828 19.5239C49.9239 19.7628 49.9989 20.035 50 20.3125V48.4375C50 48.8519 49.8354 49.2493 49.5424 49.5424C49.2493 49.8354 48.8519 50 48.4375 50ZM3.125 46.875H46.875V23.0719L33.6156 31.0281C33.3797 31.1681 33.1112 31.2436 32.8369 31.2469C32.5626 31.2501 32.2923 31.1812 32.0531 31.0469C31.8106 30.912 31.6084 30.715 31.4672 30.4761C31.3261 30.2372 31.2511 29.965 31.25 29.6875V22.8406L14.7625 31.0844C14.524 31.2037 14.259 31.2601 13.9926 31.248C13.7262 31.236 13.4673 31.156 13.2406 31.0156C13.0143 30.8756 12.8275 30.6802 12.6978 30.4477C12.5682 30.2153 12.5001 29.9536 12.5 29.6875V3.125H3.125V46.875Z" fill="#2563EB"/>
</g>
<defs>
<clipPath id="clip0_18_241">
<rect width="50" height="50" fill="white"/>
</clipPath>
</defs>
</svg>
