<svg width="50" height="50" viewBox="0 0 50 50" fill="none" xmlns="http://www.w3.org/2000/svg">
<g clip-path="url(#clip0_18_252)">
<path d="M32.4102 13.5233L28.3499 12.9333L26.5342 9.25408C25.9079 7.98503 24.0924 7.98425 23.4657 9.25408L21.65 12.9333L17.5898 13.5233C16.1894 13.7268 15.6276 15.4531 16.6416 16.4415L19.5797 19.3052L18.8862 23.3491C18.647 24.7438 20.1152 25.8116 21.3686 25.1527L25.0002 23.2434L28.6318 25.1527C29.8801 25.8093 31.3544 24.7505 31.1141 23.3491L30.4205 19.3052L33.3586 16.4415C34.3717 15.4538 33.8114 13.7269 32.4102 13.5233ZM27.1554 20.5109C24.8518 19.2999 25.218 19.2632 22.8445 20.5109C23.2842 17.9478 23.4336 18.2837 21.5123 16.4109C24.1628 16.0257 23.8482 16.2108 24.9999 13.8771C26.1537 16.215 25.8376 16.0258 28.4875 16.4109C26.6205 18.2308 26.7027 17.8716 27.1554 20.5109Z" fill="#2563EB"/>
<path d="M49.7673 39.5276L39.4314 21.6245C42.6962 11.8165 35.3767 1.61816 24.9999 1.61816C14.6209 1.61816 7.30495 11.8197 10.5685 21.6243L0.232599 39.5276C-0.49406 40.7862 0.587286 42.3251 2.01863 42.0666L8.69996 40.8586L10.9937 47.2493C11.484 48.6151 13.3554 48.7917 14.0856 47.5269L23.1012 31.9113C24.3662 32.068 25.6326 32.068 26.8985 31.9113L35.9141 47.5269C36.6441 48.7915 38.5156 48.6156 39.006 47.2493L41.2997 40.8586L47.981 42.0666C49.4116 42.3249 50.4945 40.7871 49.7673 39.5276ZM12.9677 42.6197L11.4314 38.3394C11.1492 37.5532 10.3402 37.085 9.51666 37.2338L5.04079 38.0431L12.3837 25.3241C14.1307 27.9277 16.6763 29.9476 19.641 31.0614L12.9677 42.6197ZM14.0387 21.161C10.981 13.4378 16.6649 5.03984 24.9999 5.03984C33.3414 5.03984 39.0172 13.442 35.9612 21.1609C32.0024 31.1571 17.9319 30.9919 14.0387 21.161ZM40.4832 37.2337C39.6607 37.0852 38.8509 37.5525 38.5685 38.3393L37.0321 42.6196L30.3588 31.0611C33.2542 29.9664 35.7335 28.0779 37.616 25.3238L44.959 38.0428L40.4832 37.2337Z" fill="#2563EB"/>
</g>
<defs>
<clipPath id="clip0_18_252">
<rect width="50" height="50" fill="white"/>
</clipPath>
</defs>
</svg>
