<svg width="60" height="60" viewBox="0 0 60 60" fill="none" xmlns="http://www.w3.org/2000/svg">
<path d="M7.5 26.0425C7.5 18.0475 7.5 14.05 8.445 12.705C9.3875 11.3625 13.145 10.075 20.6625 7.5025L22.095 7.0125C26.0125 5.67 27.97 5 30 5C32.03 5 33.9875 5.67 37.905 7.0125L39.3375 7.5025C46.855 10.075 50.6125 11.3625 51.555 12.705C52.5 14.05 52.5 18.05 52.5 26.0425V29.9775C52.5 44.0725 41.9025 50.915 35.2525 53.8175C33.45 54.605 32.55 55 30 55C27.45 55 26.55 54.605 24.7475 53.8175C18.0975 50.9125 7.5 44.075 7.5 29.9775V26.0425Z" stroke="#2563EB" stroke-width="3"/>
<path d="M23.75 31L27.3225 35L36.25 25" stroke="#2563EB" stroke-width="3" stroke-linecap="round" stroke-linejoin="round"/>
</svg>
