<svg width="50" height="50" viewBox="0 0 50 50" fill="none" xmlns="http://www.w3.org/2000/svg">
<path d="M26.1662 43.375C25.8262 43.6192 25.4181 43.7505 24.9995 43.7505C24.5809 43.7505 24.1729 43.6192 23.8329 43.375C13.7725 36.2042 3.09538 21.4542 13.8891 10.7958C16.8523 7.88094 20.8429 6.24818 24.9995 6.25C29.1662 6.25 33.1641 7.88542 36.11 10.7938C46.9037 21.4521 36.2266 36.2 26.1662 43.375Z" stroke="#2563EB" stroke-width="3" stroke-linecap="round" stroke-linejoin="round"/>
<path d="M24.9997 25C26.1047 25 27.1646 24.561 27.946 23.7796C28.7274 22.9982 29.1663 21.9384 29.1663 20.8333C29.1663 19.7283 28.7274 18.6684 27.946 17.887C27.1646 17.1056 26.1047 16.6667 24.9997 16.6667C23.8946 16.6667 22.8348 17.1056 22.0534 17.887C21.272 18.6684 20.833 19.7283 20.833 20.8333C20.833 21.9384 21.272 22.9982 22.0534 23.7796C22.8348 24.561 23.8946 25 24.9997 25Z" stroke="#2563EB" stroke-width="3" stroke-linecap="round" stroke-linejoin="round"/>
</svg>
