<svg width="40" height="40" viewBox="0 0 40 40" fill="none" xmlns="http://www.w3.org/2000/svg">
<path d="M20.9333 34.7C20.6613 34.8953 20.3349 35.0004 20 35.0004C19.6651 35.0004 19.3387 34.8953 19.0667 34.7C11.0183 28.9633 2.47667 17.1633 11.1117 8.63667C13.4822 6.30475 16.6747 4.99854 20 5C23.3333 5 26.5317 6.30833 28.8883 8.635C37.5233 17.1617 28.9817 28.96 20.9333 34.7Z" stroke="#2563EB" stroke-width="3" stroke-linecap="round" stroke-linejoin="round"/>
<path d="M20 20.0002C20.8841 20.0002 21.7319 19.649 22.357 19.0239C22.9822 18.3987 23.3334 17.5509 23.3334 16.6668C23.3334 15.7828 22.9822 14.9349 22.357 14.3098C21.7319 13.6847 20.8841 13.3335 20 13.3335C19.116 13.3335 18.2681 13.6847 17.643 14.3098C17.0179 14.9349 16.6667 15.7828 16.6667 16.6668C16.6667 17.5509 17.0179 18.3987 17.643 19.0239C18.2681 19.649 19.116 20.0002 20 20.0002Z" stroke="#2563EB" stroke-width="3" stroke-linecap="round" stroke-linejoin="round"/>
</svg>
