<svg width="50" height="50" viewBox="0 0 50 50" fill="none" xmlns="http://www.w3.org/2000/svg">
<path d="M44.7923 33.4416V16.5583C44.7908 15.4161 44.5623 14.2855 44.1203 13.2323C43.6782 12.1791 43.0314 11.2241 42.2173 10.4229C40.5588 8.79162 38.3249 7.87861 35.9986 7.88123H14.0007C11.6743 7.87861 9.44043 8.79162 7.7819 10.4229C6.96818 11.2243 6.32173 12.1793 5.88005 13.2325C5.43838 14.2858 5.21027 15.4162 5.20898 16.5583V33.4416C5.20898 35.7437 6.13607 37.95 7.78398 39.5771C9.44251 41.2083 11.6764 42.1214 14.0027 42.1187H36.0007C38.334 42.1187 40.5694 41.2021 42.2194 39.5771C43.0335 38.7758 43.6803 37.8209 44.1224 36.7677C44.5644 35.7144 44.7908 34.5839 44.7923 33.4416Z" stroke="#2563EB" stroke-width="3" stroke-linecap="round" stroke-linejoin="round"/>
<path d="M24.2359 33.2666C24.2359 31.5749 23.5609 29.9541 22.3568 28.7562C21.1505 27.5565 19.5184 26.8831 17.8172 26.8831C16.1159 26.8831 14.4838 27.5565 13.2776 28.7562C12.6822 29.3468 12.2097 30.0494 11.8871 30.8236C11.5646 31.5977 11.3985 32.428 11.3984 33.2666M30.3505 18.5812H37.838M30.3505 24.9999H33.5589M30.3505 31.4187H37.838M17.8172 25.2916C18.9521 25.2916 20.0405 24.8408 20.843 24.0383C21.6455 23.2358 22.0964 22.1474 22.0964 21.0124C22.0964 19.8775 21.6455 18.7891 20.843 17.9866C20.0405 17.1841 18.9521 16.7333 17.8172 16.7333C16.6823 16.7333 15.5939 17.1841 14.7914 17.9866C13.9889 18.7891 13.538 19.8775 13.538 21.0124C13.538 22.1474 13.9889 23.2358 14.7914 24.0383C15.5939 24.8408 16.6823 25.2916 17.8172 25.2916Z" stroke="#2563EB" stroke-width="3" stroke-linecap="round" stroke-linejoin="round"/>
</svg>
