<svg width="50" height="50" viewBox="0 0 50 50" fill="none" xmlns="http://www.w3.org/2000/svg">
<path d="M39.5833 43.2291C40.1358 43.2291 40.6658 43.0097 41.0565 42.619C41.4472 42.2283 41.6666 41.6983 41.6666 41.1458V38.55C41.675 32.7041 33.3875 28.125 25 28.125C16.6125 28.125 8.33331 32.7041 8.33331 38.55V41.1458C8.33331 41.6983 8.55281 42.2283 8.94351 42.619C9.33421 43.0097 9.86411 43.2291 10.4166 43.2291H39.5833ZM32.5083 14.2791C32.5083 15.2652 32.3141 16.2415 31.9368 17.1525C31.5594 18.0634 31.0064 18.8911 30.3092 19.5883C29.612 20.2856 28.7842 20.8386 27.8733 21.2159C26.9623 21.5933 25.986 21.7875 25 21.7875C24.014 21.7875 23.0376 21.5933 22.1267 21.2159C21.2157 20.8386 20.388 20.2856 19.6908 19.5883C18.9936 18.8911 18.4405 18.0634 18.0632 17.1525C17.6859 16.2415 17.4916 15.2652 17.4916 14.2791C17.4916 12.2878 18.2827 10.378 19.6908 8.96995C21.0989 7.56187 23.0086 6.77081 25 6.77081C26.9913 6.77081 28.9011 7.56187 30.3092 8.96995C31.7173 10.378 32.5083 12.2878 32.5083 14.2791Z" stroke="#2563EB" stroke-width="3" stroke-linecap="round" stroke-linejoin="round"/>
</svg>
