<svg width="50" height="50" viewBox="0 0 50 50" fill="none" xmlns="http://www.w3.org/2000/svg">
<path fill-rule="evenodd" clip-rule="evenodd" d="M22.002 4.6875H28C28.2354 4.6875 28.4187 4.6875 28.5937 4.69792C29.6761 4.76372 30.7177 5.13538 31.5972 5.7697C32.4768 6.40402 33.1583 7.27495 33.5625 8.28125C33.6291 8.44167 33.6875 8.61458 33.7604 8.83958L33.827 9.04167L33.8895 9.21875C34.2583 10.2396 35.1666 10.9479 36.1145 11.0417L36.3229 11.0542C39.8166 11.2604 42.502 11.8417 44.4979 13.8354C46.0562 15.3958 46.7479 17.3729 47.077 19.8146C47.3958 22.1896 47.3958 25.2208 47.3958 29.05V29.2833C47.3958 33.1125 47.3958 36.1458 47.077 38.5187C46.7479 40.9604 46.0562 42.9375 44.4979 44.4979C42.9375 46.0562 40.9604 46.7479 38.5187 47.0771C36.1437 47.3958 33.1125 47.3958 29.2833 47.3958H20.7166C16.8875 47.3958 13.8541 47.3958 11.4812 47.0771C9.03954 46.7479 7.06246 46.0562 5.50204 44.4979C3.94371 42.9375 3.25204 40.9604 2.92288 38.5187C2.60413 36.1437 2.60413 33.1125 2.60413 29.2833V29.05C2.60413 25.2208 2.60413 22.1875 2.92288 19.8146C3.25204 17.3729 3.94371 15.3958 5.50204 13.8354C7.49788 11.8417 10.1854 11.2604 13.677 11.0542L13.8854 11.0417C14.8333 10.95 15.7437 10.2396 16.1145 9.21875L16.1729 9.04167L16.2395 8.83958C16.3145 8.61667 16.3729 8.44167 16.4375 8.27917C16.8419 7.27325 17.5236 6.40276 18.4031 5.76883C19.2826 5.13489 20.324 4.76354 21.4062 4.69792C21.5812 4.6875 21.7645 4.6875 22.002 4.6875ZM13.8354 14.175C13.9298 14.1722 14.0222 14.1667 14.1125 14.1583C15.9312 14.0625 18.1187 14.0625 20.8333 14.0625H29.1666C31.8812 14.0625 34.0687 14.0625 35.8875 14.1583C35.9791 14.1667 36.0708 14.1722 36.1625 14.175C39.5041 14.3729 41.1583 14.9167 42.2875 16.0458C42.7061 16.4662 43.0431 16.9607 43.2812 17.5042C39.475 19.975 36.9729 21.5667 34.8687 22.6208C34.7965 22.2378 34.5837 21.8956 34.2721 21.6614C33.9606 21.4272 33.5727 21.3179 33.1847 21.355C32.7968 21.3921 32.4366 21.5728 32.175 21.8617C31.9134 22.1506 31.7692 22.5269 31.7708 22.9167V23.8708C27.3541 25.2042 22.6458 25.2042 18.2291 23.8708V22.9167C18.2307 22.5269 18.0865 22.1506 17.8249 21.8617C17.5633 21.5728 17.2032 21.3921 16.8152 21.355C16.4272 21.3179 16.0393 21.4272 15.7278 21.6614C15.4162 21.8956 15.2034 22.2378 15.1312 22.6208C13.027 21.5687 10.527 19.975 6.71871 17.5021C6.95682 16.9586 7.29378 16.4641 7.71246 16.0437C8.84163 14.9167 10.4958 14.3729 13.8375 14.175M5.96246 20.7354C5.73329 22.8104 5.73121 25.4979 5.73121 29.1667C5.73121 33.1396 5.73538 35.9625 6.02288 38.1042C6.30413 40.1979 6.83329 41.4062 7.71454 42.2875C8.59579 43.1688 9.80413 43.6979 11.9 43.9792C14.0416 44.2667 16.8625 44.2708 20.8354 44.2708H29.1687C33.1416 44.2708 35.9645 44.2667 38.1062 43.9792C40.2 43.6979 41.4083 43.1688 42.2895 42.2875C43.1708 41.4062 43.7 40.1979 43.9812 38.1021C44.2687 35.9625 44.2729 33.1396 44.2729 29.1667C44.2729 25.5 44.2708 22.8125 44.0437 20.7354C40.1125 23.2833 37.4166 24.9688 34.8979 26.0521V27.0833C34.9023 27.4977 34.7419 27.8969 34.452 28.1931C34.1621 28.4892 33.7664 28.6581 33.352 28.6625C32.9376 28.6669 32.5385 28.5065 32.2423 28.2166C31.9462 27.9267 31.7773 27.5311 31.7729 27.1167C27.3348 28.2866 22.6693 28.2866 18.2312 27.1167C18.2268 27.5313 18.0578 27.9273 17.7615 28.2174C17.4651 28.5075 17.0657 28.668 16.651 28.6635C16.2363 28.6591 15.8404 28.4902 15.5503 28.1938C15.2602 27.8975 15.0997 27.498 15.1041 27.0833V26.0521C12.5875 24.9688 9.88954 23.2812 5.95829 20.7354M31.2312 10.9396L29.2083 10.9375H18.7687C18.9123 10.65 19.0335 10.3519 19.1312 10.0458L19.1375 10.0292L19.1916 9.86875C19.2364 9.7265 19.2851 9.58547 19.3375 9.44583C19.5211 8.98838 19.8308 8.59244 20.2306 8.30405C20.6304 8.01565 21.1038 7.84664 21.5958 7.81667C21.6625 7.8125 21.7458 7.8125 22.0437 7.8125H27.9562C28.2541 7.8125 28.3375 7.8125 28.4041 7.81667C29.4083 7.87917 30.2875 8.5125 30.6645 9.44583C30.6895 9.50833 30.7145 9.58542 30.8104 9.86875L30.8687 10.0458M30.95 10.2812C31.0305 10.5076 31.1229 10.7271 31.2312 10.9396L30.95 10.2812Z" fill="#2563EB"/>
</svg>
