<svg width="50" height="50" viewBox="0 0 50 50" fill="none" xmlns="http://www.w3.org/2000/svg">
<g clip-path="url(#clip0_16_109)">
<path d="M21.927 27.4627H28.0729C33.4041 27.4627 37.6543 23.1187 37.6543 17.8812C37.6543 16.1705 37.6543 11.2408 37.6543 9.58321C37.6543 4.29907 33.356 0 28.0729 0C20.5837 0 23.4915 0 21.927 0C16.6438 0 12.3456 4.29907 12.3456 9.58321C12.3456 11.3152 12.3456 15.9305 12.3456 17.8812C12.3456 23.1126 16.5869 27.4627 21.927 27.4627ZM28.0729 2.69242C31.5969 2.69242 34.9619 5.39004 34.9619 9.93502H31.862C27.6053 9.93502 24.0296 6.85149 23.3789 2.69242H28.0729ZM15.038 9.58321C15.038 6.30259 17.3743 3.44881 20.6099 2.82022C20.2954 6.01073 18.0469 8.68502 15.038 9.59739V9.58321ZM15.038 12.3754C18.0964 11.6989 20.6574 9.68983 22.0938 7.00801C24.0524 10.3936 27.7107 12.6274 31.862 12.6274H34.9619V17.8812C34.9619 21.656 31.8967 24.7702 28.0729 24.7702H21.927C18.0912 24.7702 15.038 21.6467 15.038 17.8812V12.3754Z" fill="#2563EB"/>
<path d="M30.5336 29.9151C30.5331 29.9149 30.5327 29.9147 30.5322 29.9146C30.5316 29.9144 30.5309 29.9142 30.5304 29.914C27.1699 29.004 22.8277 29.0042 19.4678 29.9146C19.4672 29.9147 19.4669 29.9149 19.4663 29.9151C11.0261 32.1949 5.13171 39.9 5.13171 48.6538C5.13171 49.3973 5.73446 50 6.47792 50C7.28062 50 42.7193 50 43.522 50C44.2655 50 44.8682 49.3973 44.8682 48.6538C44.8682 39.8961 38.9738 32.1909 30.5336 29.9151ZM18.9856 45.6216L21.1214 47.3076H7.87834C8.42005 40.5954 12.9763 34.8076 19.4107 32.7384L21.222 34.6459L18.5242 44.1991C18.3763 44.7229 18.5583 45.2843 18.9856 45.6216ZM25 46.9387L21.3596 44.0654L24.0214 34.6403C24.1504 34.1833 24.0291 33.6918 23.702 33.3474L22.4922 32.0733C24.1226 31.8779 25.8773 31.8777 27.5075 32.0735L26.2979 33.3474C25.9709 33.6918 25.8493 34.1831 25.9786 34.6403L28.6403 44.0654L25 46.9387ZM28.8785 47.3074L31.0141 45.6216C31.4415 45.2843 31.6235 44.7229 31.4756 44.1991L28.7778 34.6459C30.1753 33.174 29.7611 33.6104 30.5892 32.738C37.0238 34.8042 41.5802 40.5918 42.1214 47.3074H28.8785Z" fill="#2563EB"/>
</g>
<defs>
<clipPath id="clip0_16_109">
<rect width="50" height="50" fill="white"/>
</clipPath>
</defs>
</svg>
