<svg width="50" height="50" viewBox="0 0 50 50" fill="none" xmlns="http://www.w3.org/2000/svg">
<path d="M43.75 15.625L35.4166 19.7917M35.4166 19.7917L34.375 20.3125L25 25M35.4166 19.7917V27.0834M35.4166 19.7917L15.625 9.37502M25 25L6.24996 15.625M25 25V44.7917M32.4541 7.04585L36.6208 9.23335C41.102 11.5854 43.3437 12.7604 44.5895 14.875C45.8333 16.9875 45.8333 19.6188 45.8333 24.8792V25.1229C45.8333 30.3813 45.8333 33.0125 44.5895 35.125C43.3437 37.2396 41.102 38.4167 36.6208 40.7688L32.4541 42.9542C28.7958 44.8729 26.9666 45.8334 25 45.8334C23.0333 45.8334 21.2041 44.875 17.5458 42.9542L13.3791 40.7667C8.89788 38.4146 6.65621 37.2396 5.41038 35.125C4.16663 33.0125 4.16663 30.3813 4.16663 25.125V24.8813C4.16663 19.6209 4.16663 16.9896 5.41038 14.8771C6.65621 12.7625 8.89788 11.5854 13.3791 9.23544L17.5458 7.04794C21.2041 5.1271 23.0333 4.16669 25 4.16669C26.9666 4.16669 28.7958 5.12502 32.4541 7.04585Z" stroke="#2563EB" stroke-width="3" stroke-linecap="round"/>
</svg>
