<svg width="50" height="50" viewBox="0 0 50 50" fill="none" xmlns="http://www.w3.org/2000/svg">
<path d="M33.334 16.667H16.668M31.605 37.75L37.501 43.75M27.085 27.083C27.9058 27.0831 28.7186 27.2448 29.4769 27.559C30.2352 27.8732 30.9242 28.3336 31.5046 28.9141C32.085 29.4945 32.5453 30.1836 32.8594 30.942C33.1734 31.7004 33.335 32.5132 33.335 33.334C33.3349 34.1548 33.1732 34.9676 32.859 35.7259C32.5448 36.4842 32.0843 37.1733 31.5039 37.7536C30.9234 38.334 30.2343 38.7943 29.476 39.1084C28.7176 39.4225 27.9048 39.5841 27.084 39.584C25.4264 39.584 23.8367 38.9255 22.6646 37.7534C21.4924 36.5813 20.834 34.9916 20.834 33.334C20.834 31.6764 21.4924 30.0867 22.6646 28.9146C23.8367 27.7425 25.4264 27.084 27.084 27.084" stroke="#2563EB" stroke-width="3" stroke-linecap="round" stroke-linejoin="round"/>
<path d="M41.667 31.25V6.25H8.333V31.25C8.333 31.5236 8.38691 31.7946 8.49165 32.0474C8.5964 32.3001 8.74992 32.5298 8.94345 32.7233C9.13698 32.9167 9.36673 33.0701 9.61956 33.1747C9.8724 33.2794 10.1434 33.3331 10.417 33.333H12.5M43.75 6.25H6.25" stroke="#2563EB" stroke-width="3" stroke-linecap="round" stroke-linejoin="round"/>
</svg>
