<svg width="50" height="50" viewBox="0 0 50 50" fill="none" xmlns="http://www.w3.org/2000/svg">
<path d="M29.1667 4.58317C27.8195 4.30817 26.4306 4.16928 25.0001 4.1665C13.4938 4.1665 4.16675 13.4936 4.16675 24.9998C4.16675 36.5061 13.4938 45.8332 25.0001 45.8332C36.5063 45.8332 45.8334 36.5061 45.8334 24.9998C45.8306 23.5693 45.6917 22.1804 45.4167 20.8332" stroke="#2563EB" stroke-width="3" stroke-linecap="round" stroke-linejoin="round"/>
<path d="M25.0002 18.7499C22.6981 18.7499 20.8335 20.1499 20.8335 21.8749C20.8335 23.5999 22.6981 24.9999 25.0002 24.9999C27.3022 24.9999 29.1668 26.3999 29.1668 28.1249C29.1668 29.8499 27.3022 31.2499 25.0002 31.2499M25.0002 18.7499C26.8127 18.7499 28.3585 19.6187 28.9293 20.8333M25.0002 18.7499V16.6666M25.0002 31.2499C23.1877 31.2499 21.6418 30.3812 21.071 29.1666M25.0002 31.2499V33.3333M35.4127 14.5874L44.1127 5.88327M45.8293 13.4999L45.5835 7.06243C45.5835 5.54369 44.6772 4.59785 43.0252 4.4791L36.5168 4.17285" stroke="#2563EB" stroke-width="3" stroke-linecap="round" stroke-linejoin="round"/>
</svg>
