<svg width="50" height="50" viewBox="0 0 50 50" fill="none" xmlns="http://www.w3.org/2000/svg">
<path d="M7.72917 11.25H39.425C42.2958 11.25 44.3688 13.8958 43.5813 16.5583L40.1354 28.225C39.6042 30.0167 37.9083 31.25 35.9792 31.25H16.9C14.9688 31.25 13.2708 30.0146 12.7417 28.225L7.72917 11.25ZM7.72917 11.25L6.25 6.25M34.375 43.75C35.2038 43.75 35.9987 43.4208 36.5847 42.8347C37.1708 42.2487 37.5 41.4538 37.5 40.625C37.5 39.7962 37.1708 39.0013 36.5847 38.4153C35.9987 37.8292 35.2038 37.5 34.375 37.5C33.5462 37.5 32.7513 37.8292 32.1653 38.4153C31.5792 39.0013 31.25 39.7962 31.25 40.625C31.25 41.4538 31.5792 42.2487 32.1653 42.8347C32.7513 43.4208 33.5462 43.75 34.375 43.75ZM17.7083 43.75C18.5371 43.75 19.332 43.4208 19.918 42.8347C20.5041 42.2487 20.8333 41.4538 20.8333 40.625C20.8333 39.7962 20.5041 39.0013 19.918 38.4153C19.332 37.8292 18.5371 37.5 17.7083 37.5C16.8795 37.5 16.0847 37.8292 15.4986 38.4153C14.9126 39.0013 14.5833 39.7962 14.5833 40.625C14.5833 41.4538 14.9126 42.2487 15.4986 42.8347C16.0847 43.4208 16.8795 43.75 17.7083 43.75Z" stroke="#2563EB" stroke-width="3" stroke-linecap="round" stroke-linejoin="round"/>
</svg>
