<svg width="40" height="40" viewBox="0 0 40 40" fill="none" xmlns="http://www.w3.org/2000/svg">
<path d="M34.1667 6.6665H5.83337C4.45266 6.6665 3.33337 7.78579 3.33337 9.1665V30.8332C3.33337 32.2139 4.45266 33.3332 5.83337 33.3332H34.1667C35.5474 33.3332 36.6667 32.2139 36.6667 30.8332V9.1665C36.6667 7.78579 35.5474 6.6665 34.1667 6.6665Z" stroke="#2563EB" stroke-width="3" stroke-linejoin="round"/>
<path d="M3.33337 9.1665C3.33337 8.50346 3.59677 7.86758 4.06561 7.39874C4.53445 6.9299 5.17033 6.6665 5.83337 6.6665H34.1667C34.8297 6.6665 35.4656 6.9299 35.9345 7.39874C36.4033 7.86758 36.6667 8.50346 36.6667 9.1665V16.6665H3.33337V9.1665Z" stroke="#2563EB" stroke-width="3"/>
<path d="M8.33333 11.4997C8.24129 11.4997 8.16667 11.5743 8.16667 11.6663C8.16667 11.7584 8.24129 11.833 8.33333 11.833C8.42538 11.833 8.5 11.7584 8.5 11.6663C8.5 11.5743 8.42538 11.4997 8.33333 11.4997Z" fill="#2563EB" stroke="#2563EB" stroke-width="3"/>
<path d="M13.3333 11.4997C13.2413 11.4997 13.1667 11.5743 13.1667 11.6663C13.1667 11.7584 13.2413 11.833 13.3333 11.833C13.4254 11.833 13.5 11.7584 13.5 11.6663C13.5 11.5743 13.4254 11.4997 13.3333 11.4997Z" fill="#2563EB" stroke="#2563EB" stroke-width="3"/>
</svg>
