<svg width="50" height="50" viewBox="0 0 50 50" fill="none" xmlns="http://www.w3.org/2000/svg">
<path d="M37.5003 31.25V18.75C37.5003 12.8583 37.5003 9.91042 35.6691 8.08125C33.8399 6.25 30.892 6.25 25.0003 6.25H16.667C10.7753 6.25 7.82741 6.25 5.99824 8.08125C4.16699 9.91042 4.16699 12.8583 4.16699 18.75V31.25C4.16699 37.1417 4.16699 40.0896 5.99824 41.9187C7.82741 43.75 10.7753 43.75 16.667 43.75H41.667M12.5003 16.6667H29.167M12.5003 25H29.167M12.5003 33.3333H20.8337" stroke="#696969" stroke-width="3" stroke-linecap="round" stroke-linejoin="round"/>
<path d="M37.5 16.6667H39.5833C42.5292 16.6667 44.0021 16.6667 44.9167 17.5833C45.8333 18.4979 45.8333 19.9708 45.8333 22.9167V39.5833C45.8333 40.6884 45.3943 41.7482 44.6129 42.5296C43.8315 43.311 42.7717 43.75 41.6667 43.75C40.5616 43.75 39.5018 43.311 38.7204 42.5296C37.939 41.7482 37.5 40.6884 37.5 39.5833V16.6667Z" stroke="#696969" stroke-width="3" stroke-linecap="round" stroke-linejoin="round"/>
</svg>
