<svg width="160" height="160" viewBox="0 0 160 160" fill="none" xmlns="http://www.w3.org/2000/svg">
<g clip-path="url(#clip0_858_55)">
<path d="M4 42L71 3.5L140.5 44.5V118.5L109 136L71.5 156L4 117V42Z" fill="white"/>
<path fill-rule="evenodd" clip-rule="evenodd" d="M73.0913 0.36272C72.2486 -0.120907 71.2082 -0.120907 70.3582 0.36272L1.39221 39.7416C0.534907 40.2326 0 41.1486 0 42.1377V117.862C0 118.851 0.534907 119.767 1.39221 120.258L70.3582 159.637C71.2082 160.121 72.2487 160.121 73.0913 159.637L110.893 138.057C116.102 143.098 123.203 146.205 131.035 146.205C133.175 146.205 135.263 145.971 137.278 145.531C139.865 144.96 142.319 144.051 144.591 142.842C153.75 137.984 160 128.34 160 117.24C160 108.908 156.476 101.397 150.848 96.1208C148.672 94.0764 146.181 92.3617 143.447 91.0647V42.1374C143.447 41.1482 142.913 40.2322 142.055 39.7413L114.518 24.016C114.489 23.994 114.46 23.9794 114.43 23.9647L100.721 16.1386C100.692 16.124 100.662 16.102 100.633 16.0873L73.0913 0.36272ZM99.3095 21.6861L107.538 26.3832L44.1414 62.5899L35.9127 57.8856L99.3095 21.6861ZM33.1065 62.6408L41.3792 67.3671V85.342L33.1065 80.623V62.6408ZM49.7031 65.7625L113.107 29.5632L135.126 42.1376L71.7289 78.3368L49.7031 65.7625ZM74.4845 83.1146L137.932 46.8871V89.1024C135.719 88.5602 133.411 88.2744 131.037 88.2744C115.041 88.2744 102.072 101.245 102.072 117.24C102.072 117.431 102.072 117.621 102.08 117.812C102.19 123.74 104.087 129.236 107.253 133.779L74.4843 152.494L74.4845 83.1146ZM68.9669 152.493L5.51955 116.265V46.8871L27.5903 59.4909V82.2213C27.5903 83.2105 28.1179 84.1264 28.9825 84.6173L42.7727 92.4946C43.63 92.9783 44.6778 92.9783 45.5279 92.4873C46.3779 91.989 46.8982 91.0804 46.8982 90.0985V70.5179L68.9689 83.1142L68.9669 152.493ZM30.3515 54.7115L93.7483 18.5048L71.73 5.9304L8.32576 42.1372L30.3515 54.7115ZM131.038 93.7903C134.093 93.7903 137.002 94.3765 139.677 95.4317C139.772 95.4757 139.867 95.5123 139.97 95.5563C142.615 96.6481 145.018 98.209 147.077 100.143C151.642 104.423 154.485 110.497 154.485 117.239C154.485 126.223 149.437 134.027 142.007 137.97C140.168 138.944 138.189 139.684 136.101 140.146C134.467 140.505 132.774 140.688 131.038 140.688C124.04 140.688 117.761 137.633 113.459 132.767C112.91 132.144 112.397 131.492 111.913 130.818C109.276 127.103 107.685 122.589 107.59 117.708V117.239C107.59 104.291 118.083 93.7903 131.038 93.7903ZM146.777 108.395C145.7 107.317 143.956 107.317 142.879 108.395L128.275 122.999L120.574 115.29C119.497 114.213 117.745 114.213 116.668 115.29C115.591 116.367 115.591 118.118 116.668 119.196L126.326 128.846C126.846 129.367 127.542 129.652 128.275 129.652C129.008 129.652 129.711 129.367 130.224 128.846L146.777 112.293C147.854 111.216 147.854 109.472 146.777 108.395Z" fill="#2563EB"/>
<circle cx="131" cy="117" r="26" fill="#696969"/>
<path d="M120.292 116.5L127.583 123.792L142.167 109.208" stroke="white" stroke-width="4" stroke-linecap="round" stroke-linejoin="round"/>
</g>
<defs>
<clipPath id="clip0_858_55">
<rect width="160" height="160" fill="white"/>
</clipPath>
</defs>
</svg>
