<svg width="159" height="159" viewBox="0 0 159 159" fill="none" xmlns="http://www.w3.org/2000/svg">
<g clip-path="url(#clip0_858_38)">
<circle cx="79.5" cy="79.5" r="78.5" fill="white"/>
<path d="M64.5356 157.516C64.366 157.516 64.1911 157.5 64.0162 157.466C34.6118 151.628 10.5842 129.132 2.80648 100.157C2.45138 98.8371 3.15628 97.467 4.43623 96.9874L21.2107 90.6963C21.2107 94.114 22.2134 97.8708 22.2134 101.713L28.059 109.313C28.059 114.456 32.2428 119.625 36.8273 121.588L43.2575 128.018L51.7573 120.58C54.9982 121.969 57.9026 123.935 60.3963 126.429L62.511 128.544C68.4099 134.445 70.6518 143.092 68.3595 151.114L67.0796 155.59C66.751 156.75 65.6963 157.516 64.5356 157.516ZM8.58613 101.092C16.2367 126.238 37.0922 145.774 62.6673 151.752L63.2662 149.661C65.0285 143.49 63.306 136.835 58.7665 132.296L56.6518 130.181C54.6378 128.167 52.2899 126.577 49.6717 125.456L43.2575 129.772L36.8273 123.927C30.3216 121.139 25.7207 115.952 25.7207 108.728L20.4597 104.052C20.4597 101.969 20.0045 99.1043 18.706 98.2059L8.58613 101.092Z" fill="#2563EB"/>
<path d="M2.84077 78.0267C2.28957 78.0267 1.74632 77.8571 1.28787 77.5232C0.559119 76.9959 0.145719 76.1346 0.193419 75.2363C1.59262 48.7681 16.059 24.8306 38.8861 11.2017C40.0176 10.5259 41.4725 10.783 42.3019 11.8059C44.7982 14.8825 47.7768 19.8036 47.7768 25.7793V30.3241C47.7768 34.5853 45.7496 39.0558 42.2118 42.5936L32.1445 52.6609C30.952 53.8561 30.5412 55.5892 31.0765 57.1898C32.701 62.0684 30.2365 67.387 25.4612 69.2976L3.80007 77.8465C3.49267 77.9684 3.16672 78.0267 2.84077 78.0267ZM39.5618 17.0184C20.6064 29.1713 8.25472 49.1232 5.82467 71.3726L23.4949 64.3766C25.6679 63.5074 26.7915 61.0879 26.0495 58.8672C24.8755 55.3507 25.7765 51.5347 28.3974 48.9138L38.4647 38.8465C41.014 36.2972 42.4768 33.1914 42.4768 30.3241V25.7793C42.4795 22.9518 41.4539 19.9043 39.5618 17.0184Z" fill="#2563EB"/>
<path d="M42.8677 133.202C42.1601 133.202 41.4817 132.918 40.9835 132.414C39.9792 131.4 16.3677 107.359 16.3677 92.3915C16.3677 76.9023 28.2556 64.3015 42.8677 64.3015C57.4798 64.3015 69.3677 76.9023 69.3677 92.3915C69.3677 107.359 45.7562 131.4 44.7518 132.414C44.2536 132.918 43.5752 133.202 42.8677 133.202ZM42.8677 69.6015C31.1785 69.6015 21.6677 79.8252 21.6677 92.3915C21.6677 102.093 35.5669 118.931 42.8677 126.725C50.1684 118.931 64.0677 102.093 64.0677 92.3915C64.0677 79.8252 54.5568 69.6015 42.8677 69.6015Z" fill="#696969"/>
<path d="M132.58 39.75C125.274 39.75 119.33 33.8061 119.33 26.5C119.33 19.194 125.274 13.25 132.58 13.25C139.886 13.25 145.83 19.194 145.83 26.5C145.83 33.8061 139.886 39.75 132.58 39.75ZM132.58 18.55C128.196 18.55 124.63 22.1169 124.63 26.5C124.63 30.8831 128.196 34.45 132.58 34.45C136.963 34.45 140.53 30.8831 140.53 26.5C140.53 22.1169 136.963 18.55 132.58 18.55Z" fill="#696969"/>
<path d="M42.8677 104.051C35.5616 104.051 29.6177 98.1073 29.6177 90.8013C29.6177 83.4952 35.5616 77.5513 42.8677 77.5513C50.1737 77.5513 56.1177 83.4952 56.1177 90.8013C56.1177 98.1073 50.1737 104.051 42.8677 104.051ZM42.8677 82.8513C38.4846 82.8513 34.9177 86.4182 34.9177 90.8013C34.9177 95.1844 38.4846 98.7513 42.8677 98.7513C47.2508 98.7513 50.8177 95.1844 50.8177 90.8013C50.8177 86.4182 47.2508 82.8513 42.8677 82.8513Z" fill="#696969"/>
<path d="M79.5796 159C35.7433 159 0.0795898 123.336 0.0795898 79.5C0.0795898 35.6637 35.7433 0 79.5796 0C92.387 0 104.641 2.9733 116.001 8.83775C116.717 9.2061 117.223 9.88185 117.382 10.6689C117.541 11.456 117.334 12.2748 116.817 12.8923C113.311 17.0925 111.38 22.4906 111.38 28.09C111.38 37.7864 125.266 54.6165 132.572 62.4155C135.616 59.1427 141.791 52.2156 146.701 44.8354C147.229 44.043 148.143 43.5899 149.092 43.6588C150.04 43.725 150.883 44.2974 151.297 45.156C156.461 55.923 159.082 67.477 159.082 79.5C159.08 123.336 123.416 159 79.5796 159ZM79.5796 5.3C38.6662 5.3 5.37959 38.5867 5.37959 79.5C5.37959 120.413 38.6662 153.7 79.5796 153.7C120.493 153.7 153.78 120.413 153.78 79.5C153.78 69.8381 151.967 60.4969 148.387 51.675C141.897 60.5684 134.806 67.7711 134.464 68.113C133.47 69.1199 131.692 69.1199 130.695 68.113C129.691 67.098 106.08 43.0572 106.08 28.09C106.08 22.3872 107.728 16.8461 110.77 12.1741C100.965 7.6108 90.487 5.3 79.5796 5.3Z" fill="#2563EB"/>
<path d="M110.012 129.937C109.334 129.937 108.817 129.887 108.52 129.847C102.642 129.683 99.2081 122.608 98.3124 108.812C98.1878 106.89 96.8549 105.237 94.9946 104.694C89.9993 103.236 86.5676 101.4 84.7947 99.2372C81.7684 95.5458 77.0037 92.273 74.4332 90.6486C71.8336 89.0029 69.7401 86.7027 68.3833 83.9891L64.8588 75.0268C63.9101 73.1533 63.494 70.8531 63.7564 68.5953C64.7104 60.4174 68.8444 51.5902 71.5792 45.7496C72.4908 43.7992 74.3935 42.5193 76.5426 42.408C78.7289 42.3126 80.7376 43.3832 81.8532 45.2408L84.8822 50.5832C85.7355 52.0036 87.2566 52.2872 88.3881 52.054C88.9022 51.948 90.5982 51.4498 90.8738 49.449L90.9295 49.0197C91.6794 42.7048 95.7737 37.3359 101.617 34.9986L109.05 32.0253C109.718 31.755 110.471 31.7735 111.128 32.0703C111.785 32.3671 112.291 32.921 112.532 33.602C116.282 44.1914 127.984 57.452 132.585 62.4049C135.63 59.1321 141.786 52.2262 146.688 44.8619C147.215 44.0669 148.132 43.627 149.078 43.6879C150.027 43.7542 150.87 44.3266 151.283 45.1852C156.461 55.9733 159.085 67.5194 159.085 79.5027C159.085 80.3374 158.693 81.1218 158.025 81.6227L150.39 87.3493C148.175 89.0109 145.347 89.6575 142.631 89.1248C139.992 88.6081 137.675 87.0207 136.239 84.7523L132.328 80.1546L128.928 98.4687C128.125 102.089 127.645 105.732 127.277 108.833C126.246 117.506 123.347 123.649 118.656 127.091C115.36 129.506 111.994 129.937 110.012 129.937ZM76.8474 47.7C76.8368 47.7 76.8235 47.7 76.8129 47.7C76.5082 47.7159 76.4101 47.9253 76.3783 47.9942C73.7866 53.5247 69.8752 61.8828 69.0219 69.2048C68.8788 70.437 69.112 71.7037 69.695 72.8724L73.2195 81.8347C74.0463 83.4644 75.48 85.0359 77.2634 86.1648C80.7349 88.3563 85.5685 91.8199 88.8916 95.8717C89.3819 96.4706 91.1044 98.0315 96.4786 99.6029C100.469 100.769 103.331 104.331 103.599 108.467C104.317 119.515 106.761 124.547 108.73 124.547C108.894 124.547 109.058 124.563 109.22 124.592C109.326 124.608 112.474 125.099 115.606 122.745C118.966 120.223 121.179 115.193 122.011 108.202C122.396 104.972 122.896 101.161 123.734 97.4034L127.327 78.0505C127.775 76.0285 129.315 74.5737 131.268 74.2583C133.136 73.9509 134.972 74.7565 136.019 76.3094L140.402 81.4637C140.498 81.575 140.583 81.6916 140.657 81.8161C141.319 82.9212 142.382 83.6658 143.646 83.9149C144.915 84.1693 146.177 83.8725 147.205 83.1014L153.769 78.1777C153.61 69.0087 151.8 60.1259 148.371 51.6909C141.884 60.5764 134.806 67.7632 134.464 68.105C133.965 68.6085 133.287 68.8921 132.58 68.8921C131.869 68.8921 131.194 68.6085 130.695 68.105C130.004 67.4028 114.591 51.7095 108.552 37.9215L103.583 39.909C99.5446 41.5255 96.7118 45.2488 96.1924 49.6239L96.1261 50.1539C95.6332 53.7288 93.015 56.506 89.4508 57.2347C85.7991 57.9847 82.2083 56.4159 80.303 53.2438L77.274 47.9014C77.176 47.7477 76.9905 47.7 76.8474 47.7Z" fill="#2563EB"/>
<path d="M132.58 68.9C131.872 68.9 131.194 68.6164 130.695 68.113C129.691 67.098 106.08 43.0572 106.08 28.09C106.08 12.6008 117.967 0 132.58 0C147.192 0 159.08 12.6008 159.08 28.09C159.08 43.0572 135.468 67.098 134.464 68.113C133.966 68.6164 133.287 68.9 132.58 68.9ZM132.58 5.3C120.89 5.3 111.38 15.5237 111.38 28.09C111.38 37.7917 125.279 54.6298 132.58 62.4234C139.88 54.6298 153.78 37.7917 153.78 28.09C153.78 15.5237 144.269 5.3 132.58 5.3Z" fill="#696969"/>
</g>
<defs>
<clipPath id="clip0_858_38">
<rect width="159" height="159" fill="white"/>
</clipPath>
</defs>
</svg>
