<svg width="50" height="50" viewBox="0 0 50 50" fill="none" xmlns="http://www.w3.org/2000/svg">
<path d="M18.7513 29.1667L31.2513 16.6667M19.793 17.7083H19.8138M30.2096 28.125H30.2305M39.5846 43.75V10.4167C39.5846 9.3116 39.1456 8.25179 38.3642 7.47039C37.5828 6.68899 36.523 6.25 35.418 6.25H14.5846C13.4796 6.25 12.4198 6.68899 11.6384 7.47039C10.857 8.25179 10.418 9.3116 10.418 10.4167V43.75L17.7096 39.5833L25.0013 43.75L32.293 39.5833L39.5846 43.75ZM20.8346 17.7083C20.8346 17.9846 20.7249 18.2496 20.5295 18.4449C20.3342 18.6403 20.0692 18.75 19.793 18.75C19.5167 18.75 19.2517 18.6403 19.0564 18.4449C18.861 18.2496 18.7513 17.9846 18.7513 17.7083C18.7513 17.4321 18.861 17.1671 19.0564 16.9718C19.2517 16.7764 19.5167 16.6667 19.793 16.6667C20.0692 16.6667 20.3342 16.7764 20.5295 16.9718C20.7249 17.1671 20.8346 17.4321 20.8346 17.7083ZM31.2513 28.125C31.2513 28.4013 31.1416 28.6662 30.9462 28.8616C30.7509 29.0569 30.4859 29.1667 30.2096 29.1667C29.9334 29.1667 29.6684 29.0569 29.4731 28.8616C29.2777 28.6662 29.168 28.4013 29.168 28.125C29.168 27.8487 29.2777 27.5838 29.4731 27.3884C29.6684 27.1931 29.9334 27.0833 30.2096 27.0833C30.4859 27.0833 30.7509 27.1931 30.9462 27.3884C31.1416 27.5838 31.2513 27.8487 31.2513 28.125Z" stroke="#2563EB" stroke-width="3" stroke-linecap="round" stroke-linejoin="round"/>
</svg>
