<svg width="50" height="50" viewBox="0 0 50 50" fill="none" xmlns="http://www.w3.org/2000/svg">
<path d="M8.33398 8.33329V41.6666C8.33398 42.7717 8.77297 43.8315 9.55437 44.6129C10.3358 45.3943 11.3956 45.8333 12.5007 45.8333H37.5006C38.6057 45.8333 39.6655 45.3943 40.4469 44.6129C41.2283 43.8315 41.6673 42.7717 41.6673 41.6666V17.3791C41.6672 16.824 41.5563 16.2746 41.3409 15.763C41.1255 15.2514 40.8101 14.788 40.4132 14.4L31.1632 5.35413C30.3847 4.593 29.3393 4.16676 28.2507 4.16663H12.5007C11.3956 4.16663 10.3358 4.60561 9.55437 5.38701C8.77297 6.16842 8.33398 7.22822 8.33398 8.33329Z" stroke="#2563EB" stroke-width="3" stroke-linecap="round" stroke-linejoin="round"/>
<path d="M29.168 4.16663V12.5C29.168 13.605 29.607 14.6648 30.3884 15.4462C31.1698 16.2276 32.2296 16.6666 33.3346 16.6666H41.668" stroke="#2563EB" stroke-width="3" stroke-linejoin="round"/>
</svg>
