<svg width="50" height="50" viewBox="0 0 50 50" fill="none" xmlns="http://www.w3.org/2000/svg">
<path d="M39.2589 16.4062C38.9727 20.3779 36.0264 23.4375 32.8136 23.4375C29.6007 23.4375 26.6495 20.3789 26.3682 16.4062C26.0753 12.2744 28.9434 9.375 32.8136 9.375C36.6837 9.375 39.5518 12.3496 39.2589 16.4062Z" stroke="#2563EB" stroke-width="3" stroke-linecap="round" stroke-linejoin="round"/>
<path d="M32.8121 29.6875C26.4479 29.6875 20.3277 32.8486 18.7945 39.0049C18.5914 39.8193 19.1022 40.625 19.9391 40.625H45.6861C46.523 40.625 47.0309 39.8193 46.8307 39.0049C45.2975 32.75 39.1773 29.6875 32.8121 29.6875Z" stroke="#2563EB" stroke-width="3" stroke-miterlimit="10"/>
<path d="M19.5308 18.1582C19.3023 21.3301 16.9215 23.8281 14.3551 23.8281C11.7887 23.8281 9.40389 21.3311 9.17928 18.1582C8.94588 14.8584 11.2633 12.5 14.3551 12.5C17.4469 12.5 19.7642 14.9189 19.5308 18.1582Z" stroke="#2563EB" stroke-width="3" stroke-linecap="round" stroke-linejoin="round"/>
<path d="M20.1167 29.8826C18.354 29.075 16.4126 28.7644 14.355 28.7644C9.27683 28.7644 4.38426 31.2888 3.15867 36.2058C2.99754 36.8562 3.40574 37.4998 4.07371 37.4998H15.0386" stroke="#2563EB" stroke-width="3" stroke-miterlimit="10" stroke-linecap="round"/>
</svg>
