<svg width="42" height="42" viewBox="0 0 42 42" fill="none" xmlns="http://www.w3.org/2000/svg">
<path d="M33.0833 36L29.3333 18.9167L36.625 11.625C39.75 8.5 40.7917 4.33333 39.75 2.25C37.6667 1.20833 33.5 2.25 30.375 5.375L23.0833 12.6667L6 8.91667C4.95833 8.70833 4.125 9.125 3.70833 9.95833L3.08333 11C2.66667 12.0417 2.875 13.0833 3.70833 13.7083L14.75 21L10.5833 27.25H4.33333L2.25 29.3333L8.5 33.5L12.6667 39.75L14.75 37.6667V31.4167L21 27.25L28.2917 38.2917C28.9167 39.125 29.9583 39.3333 31 38.9167L32.0417 38.5C32.875 37.875 33.2917 37.0417 33.0833 36Z" stroke="#2563EB" stroke-width="3" stroke-linecap="round" stroke-linejoin="round"/>
</svg>
