<svg width="30" height="30" viewBox="0 0 30 30" fill="none" xmlns="http://www.w3.org/2000/svg">
<path d="M21.25 11.2525C23.9687 11.2675 25.4413 11.3888 26.4013 12.3488C27.5 13.4475 27.5 15.215 27.5 18.75V20C27.5 23.5363 27.5 25.3038 26.4013 26.4025C25.3038 27.5 23.535 27.5 20 27.5H10C6.465 27.5 4.69625 27.5 3.59875 26.4025C2.5 25.3025 2.5 23.5363 2.5 20V18.75C2.5 15.215 2.5 13.4475 3.59875 12.3488C4.55875 11.3888 6.03125 11.2675 8.75 11.2525" stroke="#757575" stroke-width="2" stroke-linecap="round"/>
<path d="M15 2.5V18.75M15 18.75L11.25 14.375M15 18.75L18.75 14.375" stroke="#757575" stroke-width="2" stroke-linecap="round" stroke-linejoin="round"/>
</svg>
