<svg width="50" height="50" viewBox="0 0 50 50" fill="none" xmlns="http://www.w3.org/2000/svg">
<path d="M29.168 29.1667L34.3763 34.3751M34.2367 38.5938C33.9356 38.3111 33.6943 37.9707 33.5273 37.5929C33.3603 37.2151 33.2708 36.8076 33.2643 36.3946C33.2578 35.9816 33.3344 35.5714 33.4895 35.1886C33.6445 34.8057 33.875 34.4579 34.167 34.1658C34.4591 33.8737 34.8069 33.6433 35.1898 33.4883C35.5727 33.3332 35.9828 33.2566 36.3958 33.2631C36.8088 33.2696 37.2163 33.359 37.5941 33.5261C37.9719 33.6931 38.3123 33.9344 38.5951 34.2355L44.9326 40.573C45.2337 40.8558 45.4749 41.1961 45.642 41.5739C45.809 41.9517 45.8984 42.3592 45.9049 42.7723C45.9114 43.1853 45.8349 43.5954 45.6798 43.9783C45.5247 44.3611 45.2943 44.7089 45.0022 45.001C44.7101 45.2931 44.3623 45.5235 43.9795 45.6786C43.5966 45.8337 43.1865 45.9102 42.7735 45.9037C42.3604 45.8972 41.9529 45.8078 41.5751 45.6408C41.1974 45.4737 40.857 45.2325 40.5742 44.9313L34.2367 38.5938ZM33.3346 18.7501C33.3346 14.8823 31.7982 11.173 29.0633 8.43811C26.3284 5.7032 22.619 4.16675 18.7513 4.16675C14.8836 4.16675 11.1742 5.7032 8.43933 8.43811C5.70442 11.173 4.16797 14.8823 4.16797 18.7501C4.16797 22.6178 5.70442 26.3272 8.43933 29.0621C11.1742 31.797 14.8836 33.3334 18.7513 33.3334C22.619 33.3334 26.3284 31.797 29.0633 29.0621C31.7982 26.3272 33.3346 22.6178 33.3346 18.7501Z" stroke="#2563EB" stroke-width="3" stroke-linecap="round" stroke-linejoin="round"/>
</svg>
