<svg width="50" height="50" viewBox="0 0 50 50" fill="none" xmlns="http://www.w3.org/2000/svg">
<path d="M4.1665 43.75C5.4165 44.7916 6.6665 45.8333 9.37484 45.8333C14.5832 45.8333 14.5832 41.6666 19.7915 41.6666C22.4998 41.6666 23.7498 42.7083 24.9998 43.75C26.2498 44.7916 27.4998 45.8333 30.2082 45.8333C35.4165 45.8333 35.4165 41.6666 40.6248 41.6666C43.3332 41.6666 44.5832 42.7083 45.8332 43.75" stroke="#2563EB" stroke-width="3" stroke-linecap="round" stroke-linejoin="round"/>
<path d="M40.375 41.6666C42.616 37.8845 43.7829 33.5627 43.75 29.1666L25 20.8333L6.25 29.1666C6.25 35.2083 8.20833 40.2916 12.1042 45.3333" stroke="#2563EB" stroke-width="3" stroke-linecap="round" stroke-linejoin="round"/>
<path d="M39.5832 27.0833V14.5833C39.5832 13.4782 39.1442 12.4184 38.3628 11.637C37.5814 10.8556 36.5216 10.4166 35.4165 10.4166H14.5832C13.4781 10.4166 12.4183 10.8556 11.6369 11.637C10.8555 12.4184 10.4165 13.4782 10.4165 14.5833V27.0833M24.9998 20.8333V29.1666M24.9998 4.16663V10.4166" stroke="#2563EB" stroke-width="3" stroke-linecap="round" stroke-linejoin="round"/>
</svg>
