<svg width="50" height="50" viewBox="0 0 50 50" fill="none" xmlns="http://www.w3.org/2000/svg">
<path d="M9.84907 33.6187C6.63032 30.3979 5.0199 28.7896 4.42199 26.7C3.82199 24.6104 4.33449 22.3916 5.35949 17.9562L5.94907 15.3979C6.80949 11.6646 7.24074 9.7979 8.51782 8.51873C9.7949 7.23957 11.6637 6.8104 15.397 5.94998L17.9553 5.35832C22.3928 4.3354 24.6095 3.8229 26.6991 4.42082C28.7887 5.02082 30.397 6.63123 33.6157 9.84998L37.4282 13.6625C43.0345 19.2666 45.8324 22.0666 45.8324 25.5458C45.8324 29.0271 43.0324 31.8271 37.4303 37.4291C31.8262 43.0333 29.0262 45.8333 25.5449 45.8333C22.0657 45.8333 19.2637 43.0333 13.6616 37.4312L9.84907 33.6187Z" stroke="#2563EB" stroke-width="3"/>
<path d="M32.0622 32.0624C33.2809 30.8395 33.4455 29.027 32.4288 28.0083C31.4122 26.9895 29.5976 27.1562 28.3767 28.377C27.158 29.5979 25.3434 29.7624 24.3267 28.7458C23.3101 27.7291 23.4747 25.9145 24.6955 24.6958M24.6955 24.6958L23.958 23.9583M24.6955 24.6958C25.3851 24.0041 26.2642 23.6541 27.083 23.6604M32.7976 32.7979L32.0601 32.0604C31.2267 32.8958 30.1122 33.2374 29.1663 33.0416" stroke="#2563EB" stroke-width="3" stroke-linecap="round"/>
<path d="M20.8759 21.4442C22.5031 19.817 22.5031 17.1788 20.8759 15.5516C19.2488 13.9245 16.6106 13.9245 14.9834 15.5516C13.3562 17.1788 13.3562 19.817 14.9834 21.4442C16.6106 23.0714 19.2488 23.0714 20.8759 21.4442Z" stroke="#2563EB" stroke-width="3"/>
</svg>
