<svg width="50" height="50" viewBox="0 0 50 50" fill="none" xmlns="http://www.w3.org/2000/svg">
<path d="M10.418 8.49163C8.38672 8.69163 7.02005 9.14371 5.99922 10.1645C4.16797 11.9937 4.16797 14.9416 4.16797 20.8333V29.1666C4.16797 35.0583 4.16797 38.0062 5.99922 39.8354C7.02005 40.8562 8.38672 41.3083 10.418 41.5083M39.5846 8.49163C41.6159 8.69163 42.9826 9.14371 44.0034 10.1645C45.8346 11.9937 45.8346 14.9416 45.8346 20.8333V29.1666C45.8346 35.0583 45.8346 38.0062 44.0034 39.8354C42.9826 40.8562 41.6159 41.3083 39.5846 41.5083M10.418 16.6666C10.418 10.775 10.418 7.82704 12.2492 5.99788C14.0784 4.16663 17.0263 4.16663 22.918 4.16663H27.0846C32.9763 4.16663 35.9242 4.16663 37.7534 5.99788C39.5846 7.82704 39.5846 10.775 39.5846 16.6666V33.3333C39.5846 39.225 39.5846 42.1729 37.7534 44.002C35.9242 45.8333 32.9763 45.8333 27.0846 45.8333H22.918C17.0263 45.8333 14.0784 45.8333 12.2492 44.002C10.418 42.1729 10.418 39.225 10.418 33.3333V16.6666Z" stroke="#2563EB" stroke-width="3"/>
<path d="M18.75 27.0833H31.25M18.75 18.75H31.25M18.75 35.4167H25" stroke="#2563EB" stroke-width="3" stroke-linecap="round"/>
</svg>
