<svg width="50" height="50" viewBox="0 0 50 50" fill="none" xmlns="http://www.w3.org/2000/svg">
<path d="M9.84907 33.6187C6.63032 30.3979 5.0199 28.7896 4.42199 26.7C3.82199 24.6104 4.33449 22.3917 5.35949 17.9562L5.94907 15.3979C6.80949 11.6646 7.24074 9.79791 8.51782 8.51875C9.7949 7.23958 11.6637 6.81041 15.397 5.95L17.9553 5.35833C22.3928 4.33541 24.6095 3.82291 26.6991 4.42083C28.7887 5.02083 30.397 6.63125 33.6157 9.85L37.4282 13.6625C43.0345 19.2667 45.8324 22.0667 45.8324 25.5458C45.8324 29.0271 43.0324 31.8271 37.4303 37.4292C31.8262 43.0333 29.0262 45.8333 25.5449 45.8333C22.0657 45.8333 19.2637 43.0333 13.6616 37.4312L9.84907 33.6187Z" stroke="#2563EB" stroke-width="3"/>
<path d="M20.8779 21.4442C22.5051 19.817 22.5051 17.1788 20.8779 15.5516C19.2507 13.9244 16.6125 13.9244 14.9853 15.5516C13.3582 17.1788 13.3582 19.817 14.9853 21.4442C16.6125 23.0714 19.2507 23.0714 20.8779 21.4442Z" stroke="#2563EB" stroke-width="3"/>
</svg>
