<svg width="50" height="50" viewBox="0 0 50 50" fill="none" xmlns="http://www.w3.org/2000/svg">
<path d="M6.25 25C6.25 32.8563 6.25 40.9521 8.99583 43.3917C11.7417 45.8333 16.1625 45.8333 25 45.8333C33.8375 45.8333 38.2583 45.8333 41.0042 43.3917C43.75 40.95 43.75 32.8563 43.75 25" stroke="#2563EB" stroke-width="3"/>
<path d="M30.541 29.5875L43.0577 25.8334C44.2973 25.4604 44.9181 25.275 45.3119 24.8292C45.389 24.7421 45.4587 24.6487 45.5202 24.55C45.8327 24.0438 45.8327 23.3979 45.8327 22.1021C45.8327 16.9979 45.8327 14.4459 44.4306 12.7229C44.1609 12.3914 43.8579 12.0885 43.5264 11.8188C41.8035 10.4167 39.2514 10.4167 34.1473 10.4167H15.8535C10.7493 10.4167 8.19727 10.4167 6.47435 11.8188C6.14102 12.0896 5.83963 12.391 5.57018 12.7229C4.16602 14.4459 4.16602 16.9979 4.16602 22.1021C4.16602 23.3979 4.16602 24.0438 4.47852 24.55C4.54102 24.6472 4.61046 24.7403 4.68685 24.8292C5.08268 25.275 5.70143 25.4604 6.94102 25.8334L19.4577 29.5875M13.541 10.4167C15.2556 10.375 16.9993 9.28127 17.5827 7.66669L17.6556 7.4521L17.7077 7.29169C17.7952 7.0271 17.841 6.89585 17.8869 6.77919C18.1811 6.04755 18.677 5.41445 19.3169 4.95346C19.9567 4.49248 20.7143 4.22254 21.5014 4.17502C21.6244 4.16669 21.766 4.16669 22.041 4.16669H27.9535C28.2306 4.16669 28.3702 4.16669 28.4952 4.17502C29.2824 4.22254 30.0399 4.49248 30.6797 4.95346C31.3196 5.41445 31.8155 6.04755 32.1098 6.77919C32.1577 6.89585 32.2014 7.02919 32.2889 7.29169L32.3431 7.4521C32.3806 7.56252 32.3973 7.61877 32.416 7.66669C32.9994 9.28127 34.741 10.375 36.4556 10.4167" stroke="#2563EB" stroke-width="3"/>
<path d="M29.166 26.0417H20.8327C20.5564 26.0417 20.2915 26.1514 20.0961 26.3468C19.9008 26.5421 19.791 26.8071 19.791 27.0834V31.5875C19.7911 31.7955 19.8534 31.9988 19.97 32.1711C20.0866 32.3434 20.2521 32.4768 20.4452 32.5542L21.9035 33.1375C23.8908 33.9327 26.1079 33.9327 28.0952 33.1375L29.5535 32.5542C29.7466 32.4768 29.9121 32.3434 30.0287 32.1711C30.1453 31.9988 30.2076 31.7955 30.2077 31.5875V27.0834C30.2077 26.8071 30.0979 26.5421 29.9026 26.3468C29.7072 26.1514 29.4423 26.0417 29.166 26.0417Z" stroke="#2563EB" stroke-width="3" stroke-linecap="round"/>
</svg>
