<svg width="50" height="50" viewBox="0 0 50 50" fill="none" xmlns="http://www.w3.org/2000/svg">
<path d="M6.25 20.8334C6.25 12.9772 6.25 9.048 8.69167 6.60841C11.1333 4.16883 15.0604 4.16675 22.9167 4.16675H27.0833C34.9396 4.16675 38.8687 4.16675 41.3083 6.60841C43.7479 9.05008 43.75 12.9772 43.75 20.8334V29.1667C43.75 37.023 43.75 40.9522 41.3083 43.3917C38.8667 45.8313 34.9396 45.8334 27.0833 45.8334H22.9167C15.0604 45.8334 11.1312 45.8334 8.69167 43.3917C6.25208 40.9501 6.25 37.023 6.25 29.1667V20.8334Z" stroke="#2563EB" stroke-width="3"/>
<path d="M16.667 20.8335H33.3337M16.667 29.1668H27.0837" stroke="#2563EB" stroke-width="3" stroke-linecap="round"/>
</svg>
