<svg width="50" height="50" viewBox="0 0 50 50" fill="none" xmlns="http://www.w3.org/2000/svg">
<path d="M6.25 45.8333V25C6.25 21.0708 6.25 19.1083 7.47083 17.8875C8.69167 16.6666 10.6542 16.6666 14.5833 16.6666C18.5125 16.6666 20.475 16.6666 21.6958 17.8875C22.9167 19.1083 22.9167 21.0708 22.9167 25" stroke="#2563EB" stroke-width="3"/>
<path d="M35.4193 45.8333V33.3333C35.4193 29.4042 35.4193 27.4417 34.1984 26.2208C32.9776 25 31.0151 25 27.0859 25H22.9193C18.9901 25 17.0276 25 15.8068 26.2208C14.5859 27.4417 14.5859 29.4042 14.5859 33.3333V45.8333" stroke="#2563EB" stroke-width="3"/>
<path d="M43.7526 45.8332V16.1916C43.7526 13.3999 43.7526 12.002 43.0109 10.9312C42.2693 9.86033 40.9609 9.36866 38.3443 8.38949C33.2297 6.47074 30.6734 5.51241 28.8797 6.75408C27.0859 7.99991 27.0859 10.7291 27.0859 16.1916V24.9999" stroke="#2563EB" stroke-width="3"/>
<path d="M8.33464 16.6666V13.5416C8.33464 11.577 8.33464 10.5958 8.94505 9.98538C9.55547 9.37496 10.5367 9.37496 12.5013 9.37496H16.668C18.6326 9.37496 19.6138 9.37496 20.2242 9.98538C20.8346 10.5958 20.8346 11.577 20.8346 13.5416V16.6666M14.5846 8.33329V4.16663M45.8346 45.8333H4.16797M20.8346 31.25H29.168M20.8346 37.5H29.168" stroke="#2563EB" stroke-width="3" stroke-linecap="round"/>
</svg>
