<svg width="50" height="50" viewBox="0 0 50 50" fill="none" xmlns="http://www.w3.org/2000/svg">
<path d="M5.20898 25C5.20898 15.6708 5.20898 11.0041 8.1069 8.10623C11.0048 5.20831 15.6694 5.20831 25.0007 5.20831C34.3298 5.20831 38.9965 5.20831 41.8944 8.10623C44.7923 11.0041 44.7923 15.6687 44.7923 25C44.7923 34.3291 44.7923 38.9958 41.8944 41.8937C38.9965 44.7916 34.3319 44.7916 25.0007 44.7916C15.6715 44.7916 11.0048 44.7916 8.1069 41.8937C5.20898 38.9958 5.20898 34.3312 5.20898 25Z" stroke="#2563EB" stroke-width="3" stroke-linecap="round" stroke-linejoin="round"/>
<path d="M25.5052 35.4166V25C25.5052 24.0187 25.5052 23.527 25.201 23.2208C24.8948 22.9166 24.4052 22.9166 23.4219 22.9166M24.9844 16.6666H25.0031" stroke="#2563EB" stroke-width="3" stroke-linecap="round" stroke-linejoin="round"/>
</svg>
