<svg width="50" height="50" viewBox="0 0 50 50" fill="none" xmlns="http://www.w3.org/2000/svg">
<path d="M35.4167 22.5104C35.4167 21.7896 35.4167 21.4292 35.525 21.1084C35.8396 20.175 36.6708 19.8146 37.5042 19.4354C38.4375 19.0084 38.9042 18.7959 39.3687 18.7584C39.8937 18.7167 40.4208 18.8292 40.8708 19.0813C41.4667 19.4146 41.8833 20.0521 42.3083 20.5688C44.2729 22.9563 45.2562 24.15 45.6146 25.4646C45.9062 26.5271 45.9062 27.6396 45.6146 28.7C45.0917 30.6209 43.4354 32.2292 42.2083 33.7209C41.5812 34.4813 41.2667 34.8625 40.8708 35.0854C40.4131 35.3393 39.8903 35.4517 39.3687 35.4084C38.9042 35.3709 38.4375 35.1584 37.5021 34.7313C36.6687 34.3521 35.8396 33.9917 35.525 33.0584C35.4167 32.7375 35.4167 32.3771 35.4167 31.6563V22.5104ZM14.5833 22.5104C14.5833 21.6021 14.5583 20.7875 13.825 20.15C13.5583 19.9188 13.2042 19.7584 12.4979 19.4354C11.5625 19.0104 11.0958 18.7959 10.6312 18.7584C9.24166 18.6459 8.49374 19.5959 7.69374 20.5709C5.72707 22.9563 4.74374 24.15 4.38332 25.4667C4.09334 26.5257 4.09334 27.6431 4.38332 28.7021C4.90832 30.6209 6.56666 32.2313 7.79166 33.7209C8.56457 34.6584 9.30416 35.5146 10.6312 35.4084C11.0958 35.3709 11.5625 35.1584 12.4979 34.7313C13.2062 34.4104 13.5583 34.2479 13.825 34.0167C14.5583 33.3792 14.5833 32.5646 14.5833 31.6584V22.5104Z" stroke="#2563EB" stroke-width="3" stroke-linecap="round" stroke-linejoin="round"/>
<path d="M10.4166 18.75C10.4166 11.8458 16.9458 6.25 25 6.25C33.0541 6.25 39.5833 11.8458 39.5833 18.75M39.5833 35.4167V37.0833C39.5833 40.7646 35.8541 43.75 31.25 43.75H27.0833" stroke="#2563EB" stroke-width="3" stroke-linecap="round" stroke-linejoin="round"/>
</svg>
