<svg width="50" height="50" viewBox="0 0 50 50" fill="none" xmlns="http://www.w3.org/2000/svg">
<g clip-path="url(#clip0_186_1069)">
<path d="M21.9271 27.4627H28.073C33.4042 27.4627 37.6544 23.1187 37.6544 17.8812C37.6544 16.1705 37.6544 11.2408 37.6544 9.58321C37.6544 4.29907 33.3561 0 28.073 0C20.5838 0 23.4916 0 21.9271 0C16.6439 0 12.3457 4.29907 12.3457 9.58321C12.3457 11.3152 12.3457 15.9305 12.3457 17.8812C12.3457 23.1126 16.587 27.4627 21.9271 27.4627ZM28.073 2.69242C31.597 2.69242 34.962 5.39004 34.962 9.93502H31.8621C27.6054 9.93502 24.0297 6.85149 23.3791 2.69242H28.073ZM15.0381 9.58321C15.0381 6.30259 17.3744 3.44881 20.61 2.82022C20.2955 6.01073 18.047 8.68502 15.0381 9.59739V9.58321ZM15.0381 12.3754C18.0965 11.6989 20.6576 9.68983 22.0939 7.00801C24.0525 10.3936 27.7108 12.6274 31.8621 12.6274H34.962V17.8812C34.962 21.656 31.8968 24.7702 28.073 24.7702H21.9271C18.0913 24.7702 15.0381 21.6467 15.0381 17.8812V12.3754Z" fill="#2563EB"/>
<path d="M30.5327 29.9151C30.5322 29.9149 30.5319 29.9147 30.5313 29.9146C30.5308 29.9144 30.5301 29.9142 30.5295 29.914C27.169 29.004 22.8269 29.0042 19.4669 29.9146C19.4664 29.9147 19.466 29.9149 19.4655 29.9151C11.0253 32.1949 5.13086 39.9 5.13086 48.6538C5.13086 49.3973 5.7336 50 6.47707 50C7.27977 50 42.7185 50 43.5212 50C44.2646 50 44.8674 49.3973 44.8674 48.6538C44.8674 39.8961 38.9729 32.1909 30.5327 29.9151ZM18.9848 45.6216L21.1206 47.3076H7.87748C8.4192 40.5954 12.9755 34.8076 19.4098 32.7384L21.2211 34.6459L18.5233 44.1991C18.3754 44.7229 18.5574 45.2843 18.9848 45.6216ZM24.9991 46.9387L21.3588 44.0654L24.0205 34.6403C24.1496 34.1833 24.0282 33.6918 23.7012 33.3474L22.4914 32.0733C24.1217 31.8779 25.8765 31.8777 27.5067 32.0735L26.297 33.3474C25.97 33.6918 25.8485 34.1831 25.9777 34.6403L28.6394 44.0654L24.9991 46.9387ZM28.8776 47.3074L31.0133 45.6216C31.4406 45.2843 31.6226 44.7229 31.4747 44.1991L28.7769 34.6459C30.1745 33.174 29.7602 33.6104 30.5884 32.738C37.0229 34.8042 41.5794 40.5918 42.1206 47.3074H28.8776Z" fill="#2563EB"/>
</g>
<defs>
<clipPath id="clip0_186_1069">
<rect width="50" height="50" fill="white"/>
</clipPath>
</defs>
</svg>
