<svg width="50" height="50" viewBox="0 0 50 50" fill="none" xmlns="http://www.w3.org/2000/svg">
<path d="M42.7077 12.5H19.791C18.0651 12.5 16.666 13.8991 16.666 15.625V28.125C16.666 29.8509 18.0651 31.25 19.791 31.25H42.7077C44.4336 31.25 45.8327 29.8509 45.8327 28.125V15.625C45.8327 13.8991 44.4336 12.5 42.7077 12.5Z" stroke="#2563EB" stroke-width="3" stroke-linejoin="round"/>
<path d="M25 18.75V25M37.5 18.75V25" stroke="#2563EB" stroke-width="3" stroke-linecap="round"/>
<path d="M37.4994 12.5V6.25H24.9994V12.5M45.8327 37.5H12.4993C11.9468 37.5 11.4169 37.2805 11.0262 36.8898C10.6355 36.4991 10.416 35.9692 10.416 35.4167V11.4583C10.416 10.9058 10.1965 10.3759 9.80582 9.98519C9.41512 9.59449 8.88522 9.375 8.33268 9.375H4.16602M19.791 43.75C18.9622 43.75 18.1674 43.4208 17.5813 42.8347C16.9953 42.2487 16.666 41.4538 16.666 40.625V37.5H22.916V40.625C22.916 41.4538 22.5868 42.2487 22.0007 42.8347C21.4147 43.4208 20.6198 43.75 19.791 43.75ZM38.541 43.75C37.7122 43.75 36.9174 43.4208 36.3313 42.8347C35.7453 42.2487 35.416 41.4538 35.416 40.625V37.5H41.666V40.625C41.666 41.4538 41.3368 42.2487 40.7507 42.8347C40.1647 43.4208 39.3698 43.75 38.541 43.75Z" stroke="#2563EB" stroke-width="3" stroke-linecap="round" stroke-linejoin="round"/>
</svg>
