<svg width="50" height="50" viewBox="0 0 50 50" fill="none" xmlns="http://www.w3.org/2000/svg">
<path d="M4.16663 43.7503C5.41663 44.792 6.66663 45.8337 9.37496 45.8337C14.5833 45.8337 14.5833 41.667 19.7916 41.667C22.5 41.667 23.75 42.7087 25 43.7503C26.25 44.792 27.5 45.8337 30.2083 45.8337C35.4166 45.8337 35.4166 41.667 40.625 41.667C43.3333 41.667 44.5833 42.7087 45.8333 43.7503" stroke="#2563EB" stroke-width="3" stroke-linecap="round" stroke-linejoin="round"/>
<path d="M40.375 41.6663C42.616 37.8842 43.7829 33.5624 43.75 29.1663L25 20.833L6.25 29.1663C6.25 35.208 8.20833 40.2913 12.1042 45.333" stroke="#2563EB" stroke-width="3" stroke-linecap="round" stroke-linejoin="round"/>
<path d="M39.5833 27.0832V14.5832C39.5833 13.4781 39.1443 12.4183 38.3629 11.6369C37.5815 10.8555 36.5217 10.4165 35.4166 10.4165H14.5833C13.4782 10.4165 12.4184 10.8555 11.637 11.6369C10.8556 12.4183 10.4166 13.4781 10.4166 14.5832V27.0832M25 20.8332V29.1665M25 4.1665V10.4165" stroke="#2563EB" stroke-width="3" stroke-linecap="round" stroke-linejoin="round"/>
</svg>
