<svg width="50" height="50" viewBox="0 0 50 50" fill="none" xmlns="http://www.w3.org/2000/svg">
<path d="M37.0833 40L33.3333 22.9167L40.625 15.625C43.75 12.5 44.7917 8.33333 43.75 6.25C41.6667 5.20833 37.5 6.25 34.375 9.375L27.0833 16.6667L10 12.9167C8.95833 12.7083 8.125 13.125 7.70833 13.9583L7.08333 15C6.66667 16.0417 6.875 17.0833 7.70833 17.7083L18.75 25L14.5833 31.25H8.33333L6.25 33.3333L12.5 37.5L16.6667 43.75L18.75 41.6667V35.4167L25 31.25L32.2917 42.2917C32.9167 43.125 33.9583 43.3333 35 42.9167L36.0417 42.5C36.875 41.875 37.2917 41.0417 37.0833 40Z" stroke="#2563EB" stroke-width="3" stroke-linecap="round" stroke-linejoin="round"/>
</svg>
