<svg width="42" height="46" viewBox="0 0 42 46" fill="none" xmlns="http://www.w3.org/2000/svg">
<path d="M18.9154 18.8333C23.5177 18.8333 27.2487 15.1024 27.2487 10.5C27.2487 5.89762 23.5177 2.16666 18.9154 2.16666C14.313 2.16666 10.582 5.89762 10.582 10.5C10.582 15.1024 14.313 18.8333 18.9154 18.8333Z" stroke="#2563EB" stroke-width="3"/>
<path d="M31.418 19.4583L34.1951 21.9583L39.7513 15.7083" stroke="#2563EB" stroke-width="3" stroke-linecap="round" stroke-linejoin="round"/>
<path d="M35.5792 35.5C35.5792 35.5 35.5833 34.8111 35.5833 34.4583C35.5833 29.2812 28.1208 25.0833 18.9167 25.0833C9.7125 25.0833 2.25 29.2812 2.25 34.4583C2.25 39.6354 2.25 43.8333 18.9167 43.8333C35.5833 43.8333 35.5833 38.625 35.5792 35.5Z" stroke="#2563EB" stroke-width="3" stroke-linecap="round"/>
</svg>
