<svg width="46" height="46" viewBox="0 0 46 46" fill="none" xmlns="http://www.w3.org/2000/svg">
<path d="M12.5841 10.5V8.41666C12.5841 5.47082 12.5841 3.99791 13.5008 3.08332C14.4133 2.16666 15.8862 2.16666 18.8341 2.16666H27.1674C30.1133 2.16666 31.5862 2.16666 32.5008 3.08332C33.4174 3.99582 33.4174 5.46874 33.4174 8.41666V10.5C33.4174 13.4458 33.4174 14.9187 32.5008 15.8333C31.5883 16.75 30.1154 16.75 27.1674 16.75H25.0841L18.8341 20.9167V16.75C15.8883 16.75 14.4154 16.75 13.5008 15.8333C12.5841 14.9208 12.5841 13.4479 12.5841 10.5ZM5.47994 37.0417C4.16953 37.9208 0.736193 39.7125 2.82786 41.9542C3.84869 43.05 4.98828 43.8333 6.41744 43.8333H14.5841C16.0133 43.8333 17.1529 43.05 18.1737 41.9542C20.2654 39.7125 16.832 37.9208 15.5216 37.0437C14.0404 36.0379 12.2912 35.5002 10.5008 35.5002C8.71033 35.5002 6.96116 36.0358 5.47994 37.0417ZM30.4799 37.0417C29.1695 37.9208 25.7362 39.7125 27.8279 41.9542C28.8487 43.05 29.9883 43.8333 31.4174 43.8333H39.5841C41.0133 43.8333 42.1529 43.05 43.1737 41.9542C45.2654 39.7125 41.832 37.9208 40.5216 37.0437C39.0404 36.0379 37.2912 35.5002 35.5008 35.5002C33.7103 35.5002 31.9612 36.0358 30.4799 37.0417ZM14.6674 26.125C14.6674 27.2301 14.2285 28.2899 13.4471 29.0713C12.6657 29.8527 11.6058 30.2917 10.5008 30.2917C9.39571 30.2917 8.3359 29.8527 7.5545 29.0713C6.7731 28.2899 6.33411 27.2301 6.33411 26.125C6.33411 25.0199 6.7731 23.9601 7.5545 23.1787C8.3359 22.3973 9.39571 21.9583 10.5008 21.9583C11.6058 21.9583 12.6657 22.3973 13.4471 23.1787C14.2285 23.9601 14.6674 25.0199 14.6674 26.125ZM39.6674 26.125C39.6674 27.2301 39.2285 28.2899 38.4471 29.0713C37.6657 29.8527 36.6058 30.2917 35.5008 30.2917C34.3957 30.2917 33.3359 29.8527 32.5545 29.0713C31.7731 28.2899 31.3341 27.2301 31.3341 26.125C31.3341 25.0199 31.7731 23.9601 32.5545 23.1787C33.3359 22.3973 34.3957 21.9583 35.5008 21.9583C36.6058 21.9583 37.6657 22.3973 38.4471 23.1787C39.2285 23.9601 39.6674 25.0199 39.6674 26.125Z" stroke="#2563EB" stroke-width="3" stroke-linecap="round" stroke-linejoin="round"/>
</svg>
