<svg width="50" height="50" viewBox="0 0 50 50" fill="none" xmlns="http://www.w3.org/2000/svg">
<path d="M33.0208 16.9583C33.8333 16.9583 34.625 17.0208 35.3958 17.125C33.9792 10.9375 27.4792 6.25 19.6667 6.25C10.8125 6.25 3.625 12.25 3.625 19.6458C3.625 23.9167 6.02083 27.6875 9.75 30.1458L7.64583 34.375L13.3958 31.8958C14.625 32.3333 15.9167 32.6875 17.2917 32.875C17.1042 32.0625 17 31.2292 17 30.3542C16.9792 22.9792 24.1667 16.9583 33.0208 16.9583ZM25 12.2708C25.2626 12.2708 25.5227 12.3226 25.7654 12.4231C26.008 12.5236 26.2285 12.6709 26.4142 12.8566C26.5999 13.0423 26.7472 13.2628 26.8478 13.5055C26.9483 13.7481 27 14.0082 27 14.2708C27 14.5335 26.9483 14.7935 26.8478 15.0362C26.7472 15.2789 26.5999 15.4993 26.4142 15.685C26.2285 15.8708 26.008 16.0181 25.7654 16.1186C25.5227 16.2191 25.2626 16.2708 25 16.2708C24.4696 16.2708 23.9609 16.0601 23.5858 15.685C23.2107 15.31 23 14.8013 23 14.2708C23 13.7404 23.2107 13.2317 23.5858 12.8566C23.9609 12.4815 24.4696 12.2708 25 12.2708ZM14.3125 16.2917C13.7821 16.2917 13.2734 16.081 12.8983 15.7059C12.5232 15.3308 12.3125 14.8221 12.3125 14.2917C12.3125 13.7612 12.5232 13.2525 12.8983 12.8775C13.2734 12.5024 13.7821 12.2917 14.3125 12.2917C14.8429 12.2917 15.3516 12.5024 15.7267 12.8775C16.1018 13.2525 16.3125 13.7612 16.3125 14.2917C16.3125 14.8221 16.1018 15.3308 15.7267 15.7059C15.3516 16.081 14.8429 16.2917 14.3125 16.2917Z" fill="#2563EB"/>
<path d="M46.3753 30.3541C46.3753 24.4375 40.3962 19.6458 33.0212 19.6458C25.6462 19.6458 19.667 24.4375 19.667 30.3541C19.667 36.2708 25.6462 41.0625 33.0212 41.0625C34.2295 41.0625 35.3962 40.8958 36.5003 40.6458L43.7087 43.75L41.2087 38.75C44.3337 36.7916 46.3753 33.7916 46.3753 30.3541ZM29.0003 29.6875C28.6048 29.6875 28.2181 29.5702 27.8892 29.3504C27.5603 29.1307 27.3039 28.8183 27.1526 28.4528C27.0012 28.0874 26.9616 27.6853 27.0388 27.2973C27.1159 26.9093 27.3064 26.553 27.5861 26.2733C27.8658 25.9936 28.2222 25.8031 28.6101 25.7259C28.9981 25.6487 29.4002 25.6883 29.7657 25.8397C30.1311 25.9911 30.4435 26.2474 30.6633 26.5763C30.883 26.9052 31.0003 27.2919 31.0003 27.6875C31.0212 28.7916 30.1045 29.6875 29.0003 29.6875ZM37.0212 29.6875C36.4907 29.6875 35.982 29.4768 35.6069 29.1017C35.2319 28.7266 35.0212 28.2179 35.0212 27.6875C35.0212 27.157 35.2319 26.6483 35.6069 26.2733C35.982 25.8982 36.4907 25.6875 37.0212 25.6875C37.5516 25.6875 38.0603 25.8982 38.4354 26.2733C38.8104 26.6483 39.0212 27.157 39.0212 27.6875C39.0212 28.2179 38.8104 28.7266 38.4354 29.1017C38.0603 29.4768 37.5516 29.6875 37.0212 29.6875Z" fill="#2563EB"/>
</svg>
