<svg width="50" height="50" viewBox="0 0 50 50" fill="none" xmlns="http://www.w3.org/2000/svg">
<path d="M25.0023 4.16663C36.5086 4.16663 45.8356 13.4937 45.8356 25C45.8356 36.5062 36.5086 45.8333 25.0023 45.8333C21.3205 45.8396 17.7035 44.8653 14.5231 43.0104L4.17731 45.8333L6.99398 35.4833C5.13764 32.3019 4.16253 28.6833 4.16898 25C4.16898 13.4937 13.4961 4.16663 25.0023 4.16663ZM17.9023 15.2083L17.4856 15.225C17.2162 15.2435 16.953 15.3143 16.7106 15.4333C16.4848 15.5614 16.2785 15.7214 16.0981 15.9083C15.8481 16.1437 15.7065 16.3479 15.5544 16.5458C14.7838 17.5477 14.3689 18.7777 14.3752 20.0416C14.3794 21.0625 14.6461 22.0562 15.0627 22.9854C15.9148 24.8645 17.3169 26.8541 19.1669 28.6979C19.6127 29.1416 20.0502 29.5875 20.5211 30.002C22.8199 32.0258 25.5591 33.4853 28.5211 34.2645L29.7044 34.4458C30.0898 34.4666 30.4752 34.4375 30.8627 34.4187C31.4694 34.3867 32.0617 34.2225 32.5981 33.9375C32.8707 33.7965 33.137 33.6436 33.3961 33.4791C33.3961 33.4791 33.4843 33.4194 33.6565 33.2916C33.9377 33.0833 34.1106 32.9354 34.344 32.6916C34.519 32.5111 34.6648 32.3013 34.7815 32.0625C34.944 31.7229 35.1065 31.075 35.1731 30.5354C35.2231 30.1229 35.2086 29.8979 35.2023 29.7583C35.194 29.5354 35.0086 29.3041 34.8065 29.2062L33.594 28.6625C33.594 28.6625 31.7815 27.8729 30.6731 27.3687C30.5571 27.3182 30.4329 27.2893 30.3065 27.2833C30.1639 27.2684 30.0198 27.2843 29.884 27.3299C29.7481 27.3756 29.6236 27.4499 29.519 27.5479C29.5086 27.5437 29.369 27.6625 27.8627 29.4875C27.7763 29.6036 27.6572 29.6914 27.5206 29.7397C27.3841 29.7879 27.2363 29.7944 27.0961 29.7583C26.9603 29.7221 26.8273 29.6762 26.6981 29.6208C26.4398 29.5125 26.3502 29.4708 26.1731 29.3958C24.977 28.8748 23.8699 28.1697 22.8919 27.3062C22.6294 27.077 22.3856 26.827 22.1356 26.5854C21.3161 25.8004 20.6018 24.9124 20.0106 23.9437L19.8877 23.7458C19.8008 23.612 19.7295 23.4687 19.6752 23.3187C19.5961 23.0125 19.8023 22.7666 19.8023 22.7666C19.8023 22.7666 20.3086 22.2125 20.544 21.9125C20.7731 21.6208 20.9669 21.3375 21.0919 21.1354C21.3377 20.7395 21.4148 20.3333 21.2856 20.0187C20.7023 18.5937 20.0995 17.1763 19.4773 15.7666C19.3544 15.4875 18.9898 15.2875 18.6586 15.2479C18.5461 15.234 18.4336 15.2229 18.3211 15.2145C18.0413 15.1985 17.7608 15.2013 17.4815 15.2229L17.9023 15.2083Z" fill="#2563EB"/>
</svg>
