<svg width="50" height="50" viewBox="0 0 50 50" fill="none" xmlns="http://www.w3.org/2000/svg">
<path d="M45.8334 24.9998C45.8334 13.4936 36.5063 4.1665 25.0001 4.1665C13.4938 4.1665 4.16675 13.4936 4.16675 24.9998C4.16675 36.5061 13.4938 45.8332 25.0001 45.8332C36.5063 45.8332 45.8334 36.5061 45.8334 24.9998Z" stroke="#2563EB" stroke-width="3" stroke-linecap="round" stroke-linejoin="round"/>
<path d="M41 12C39.0521 12.1396 37.2251 12.7688 35.4959 15.0063C32.3709 19.048 29.248 19.3876 27.1647 18.0397C24.0397 16.0188 26.6667 12.7417 23.0001 10.9626C20.6105 9.80216 20.1688 6.97917 21.5 4.5M5 20.5C6.58958 21.8792 7.97925 25.5584 10.6022 25.5584C16.0188 25.5584 17.1022 26.5938 17.1022 30.7334C17.1022 34.873 17.1022 34.873 18.1855 37.9772C18.8897 39.998 19.1355 42.0147 17.7313 43.7501M45.5 28C43.6521 26.9375 41.6667 26.523 39.3188 28.2084C34.8292 31.4376 31.7313 28.7626 30.3376 31.4355C28.2855 35.3688 36.45 35.7708 30 45" stroke="#2563EB" stroke-width="3" stroke-linecap="round" stroke-linejoin="round"/>
</svg>
